<?xml version="1.0" standalone="no"?><!DOCTYPE svg PUBLIC "-//W3C//DTD SVG 1.1//EN" "http://www.w3.org/Graphics/SVG/1.1/DTD/svg11.dtd"><svg height="1024" node-id="1" sillyvg="true" template-height="1024" template-width="1024" version="1.1" viewBox="0 0 1024 1024" width="1024" xmlns="http://www.w3.org/2000/svg" xmlns:xlink="http://www.w3.org/1999/xlink"><defs node-id="175"><linearGradient gradientUnits="objectBoundingBox" id="linearGradient1" node-id="177" spreadMethod="pad" x1="-0.1358235" x2="0.5" y1="0.5" y2="0.47203198"><stop offset="0" stop-color="#98d6fa"></stop><stop offset="1" stop-color="#47b0f1"></stop></linearGradient><linearGradient gradientUnits="objectBoundingBox" id="linearGradient-1" node-id="5" spreadMethod="pad" x1="-0.1358235" x2="0.5" y1="0.5" y2="0.47203198"><stop offset="0" stop-color="#98d6fa"></stop><stop offset="1" stop-color="#47b0f1"></stop></linearGradient><linearGradient gradientUnits="objectBoundingBox" id="linearGradient-2" node-id="8" spreadMethod="pad" x1="-0.0000000000000009337728" x2="1" y1="-0.031055901" y2="-0.031055901"><stop offset="0" stop-color="#fff5de"></stop><stop offset="1" stop-color="#fbd2ac"></stop></linearGradient><linearGradient gradientUnits="objectBoundingBox" id="linearGradient-3" node-id="11" spreadMethod="pad" x1="-0.1358235" x2="0.5" y1="0.5" y2="0.47628444"><stop offset="0" stop-color="#98d6fa"></stop><stop offset="1" stop-color="#47b0f1"></stop></linearGradient><linearGradient gradientUnits="objectBoundingBox" id="linearGradient2" node-id="202" spreadMethod="pad" x1="-0.1358235" x2="0.5" y1="0.5" y2="0.47629464"><stop offset="0" stop-color="#98d6fa"></stop><stop offset="1" stop-color="#47b0f1"></stop></linearGradient><linearGradient gradientUnits="objectBoundingBox" id="linearGradient-4" node-id="14" spreadMethod="pad" x1="-0.1358235" x2="0.5" y1="0.5" y2="0.47629464"><stop offset="0" stop-color="#98d6fa"></stop><stop offset="1" stop-color="#47b0f1"></stop></linearGradient><linearGradient gradientUnits="objectBoundingBox" id="linearGradient-5" node-id="17" spreadMethod="pad" x1="-0.1358235" x2="0.5" y1="0.5" y2="0.47629884"><stop offset="0" stop-color="#98d6fa"></stop><stop offset="1" stop-color="#47b0f1"></stop></linearGradient><linearGradient gradientUnits="objectBoundingBox" id="linearGradient-6" node-id="20" spreadMethod="pad" x1="-0.1358235" x2="0.5" y1="0.5" y2="0.4342302"><stop offset="0" stop-color="#98d6fa"></stop><stop offset="1" stop-color="#47b0f1"></stop></linearGradient><linearGradient gradientUnits="objectBoundingBox" id="linearGradient3" node-id="227" spreadMethod="pad" x1="0.43139893" x2="0.60336566" y1="-0.06451613" y2="0"><stop offset="0.031572677" stop-color="#afdef9"></stop><stop offset="1" stop-color="#7cc9f9"></stop></linearGradient><linearGradient gradientUnits="objectBoundingBox" id="linearGradient-8" node-id="26" spreadMethod="pad" x1="0.05920258" x2="0.5996637" y1="0.6085715" y2="0.37054223"><stop offset="0" stop-color="#98d6fa"></stop><stop offset="1" stop-color="#47b0f1"></stop></linearGradient><linearGradient gradientUnits="objectBoundingBox" id="linearGradient-9" node-id="29" spreadMethod="pad" x1="0.44492638" x2="0.58298296" y1="-0.06451613" y2="0"><stop offset="0.031572677" stop-color="#afdef9"></stop><stop offset="1" stop-color="#7cc9f9"></stop></linearGradient><linearGradient gradientUnits="objectBoundingBox" id="linearGradient-10" node-id="32" spreadMethod="pad" x1="0.28403884" x2="0.5" y1="0.8700848" y2="0.30481097"><stop offset="0" stop-color="#98d6fa"></stop><stop offset="1" stop-color="#47b0f1"></stop></linearGradient><linearGradient gradientUnits="objectBoundingBox" id="linearGradient-7" node-id="23" spreadMethod="pad" x1="0.43139893" x2="0.60336566" y1="-0.06451613" y2="0"><stop offset="0.031572677" stop-color="#afdef9"></stop><stop offset="1" stop-color="#7cc9f9"></stop></linearGradient><linearGradient gradientUnits="objectBoundingBox" id="linearGradient-11" node-id="35" spreadMethod="pad" x1="0.8017669" x2="0.40161258" y1="0.7812446" y2="0.012035675"><stop offset="0" stop-color="#98d6fa"></stop><stop offset="1" stop-color="#47b0f1"></stop></linearGradient><linearGradient gradientUnits="objectBoundingBox" id="linearGradient-12" node-id="38" spreadMethod="pad" x1="0.1696366" x2="0.73110634" y1="0.77603304" y2="0.27310416"><stop offset="0" stop-color="#98d6fa"></stop><stop offset="1" stop-color="#47b0f1"></stop></linearGradient><linearGradient gradientUnits="objectBoundingBox" id="linearGradient-13" node-id="41" spreadMethod="pad" x1="0" x2="0.849776" y1="0.6687911" y2="0.36125568"><stop offset="0" stop-color="#98d6fa"></stop><stop offset="1" stop-color="#47b0f1"></stop></linearGradient><linearGradient gradientUnits="objectBoundingBox" id="linearGradient-14" node-id="44" spreadMethod="pad" x1="0" x2="0.849776" y1="0.6436173" y2="0.38194832"><stop offset="0" stop-color="#98d6fa"></stop><stop offset="1" stop-color="#47b0f1"></stop></linearGradient><linearGradient gradientUnits="objectBoundingBox" id="linearGradient-15" node-id="47" spreadMethod="pad" x1="0" x2="0.849776" y1="0.63935465" y2="0.38545215"><stop offset="0" stop-color="#98d6fa"></stop><stop offset="1" stop-color="#47b0f1"></stop></linearGradient><linearGradient gradientUnits="objectBoundingBox" id="linearGradient-16" node-id="50" spreadMethod="pad" x1="0.49637744" x2="0.5013611" y1="-0.07052451" y2="1"><stop offset="0" stop-color="#98d6fa"></stop><stop offset="1" stop-color="#47b0f1"></stop></linearGradient><linearGradient gradientUnits="objectBoundingBox" id="linearGradient-17" node-id="53" spreadMethod="pad" x1="-0.15448838" x2="0.72353727" y1="0.45968297" y2="0.52784383"><stop offset="0" stop-color="#98d6fa"></stop><stop offset="1" stop-color="#47b0f1"></stop></linearGradient><linearGradient gradientUnits="objectBoundingBox" id="linearGradient-18" node-id="56" spreadMethod="pad" x1="0.702243" x2="-0.10227537" y1="0.51687366" y2="0.47148585"><stop offset="0" stop-color="#47b0f1"></stop><stop offset="1" stop-color="#98d6fa"></stop></linearGradient><linearGradient gradientUnits="objectBoundingBox" id="linearGradient-19" node-id="59" spreadMethod="pad" x1="-0.15448838" x2="0.76486415" y1="0.47148585" y2="0.52851415"><stop offset="0" stop-color="#98d6fa"></stop><stop offset="1" stop-color="#47b0f1"></stop></linearGradient><linearGradient gradientUnits="objectBoundingBox" id="linearGradient-20" node-id="62" spreadMethod="pad" x1="0.89443105" x2="0" y1="0.3001404" y2="1.1070602"><stop offset="0" stop-color="#98d6fa"></stop><stop offset="1" stop-color="#47b0f1"></stop></linearGradient><linearGradient gradientUnits="objectBoundingBox" id="linearGradient4" node-id="318" spreadMethod="pad" x1="-0.54080534" x2="0.5" y1="0.6194856" y2="0.4369813"><stop offset="0" stop-color="#98d6fa"></stop><stop offset="1" stop-color="#47b0f1"></stop></linearGradient><linearGradient gradientUnits="objectBoundingBox" id="linearGradient5" node-id="325" spreadMethod="pad" x1="0.89443105" x2="0" y1="0.44632095" y2="0.6630465"><stop offset="0" stop-color="#98d6fa"></stop><stop offset="1" stop-color="#47b0f1"></stop></linearGradient><linearGradient gradientUnits="objectBoundingBox" id="linearGradient-21" node-id="65" spreadMethod="pad" x1="-0.54080534" x2="0.5" y1="0.6194856" y2="0.4369813"><stop offset="0" stop-color="#98d6fa"></stop><stop offset="1" stop-color="#47b0f1"></stop></linearGradient><linearGradient gradientUnits="objectBoundingBox" id="linearGradient-22" node-id="68" spreadMethod="pad" x1="0.89443105" x2="0" y1="0.44632095" y2="0.6630465"><stop offset="0" stop-color="#98d6fa"></stop><stop offset="1" stop-color="#47b0f1"></stop></linearGradient><linearGradient gradientUnits="objectBoundingBox" id="linearGradient-23" node-id="71" spreadMethod="pad" x1="0.89443105" x2="0" y1="0.48208675" y2="0.5544102"><stop offset="0" stop-color="#98d6fa"></stop><stop offset="1" stop-color="#47b0f1"></stop></linearGradient><linearGradient gradientUnits="objectBoundingBox" id="linearGradient-24" node-id="74" spreadMethod="pad" x1="0.22355923" x2="0.5" y1="-0.089142084" y2="0.77381057"><stop offset="0" stop-color="#98d6fa"></stop><stop offset="1" stop-color="#47b0f1"></stop></linearGradient><linearGradient gradientUnits="objectBoundingBox" id="linearGradient-25" node-id="77" spreadMethod="pad" x1="0.45362788" x2="0.5" y1="-0.11452465" y2="0.7856074"><stop offset="0" stop-color="#98d6fa"></stop><stop offset="1" stop-color="#47b0f1"></stop></linearGradient><linearGradient gradientUnits="objectBoundingBox" id="linearGradient-26" node-id="80" spreadMethod="pad" x1="0.47746408" x2="0.5" y1="-0.11452465" y2="0.7856074"><stop offset="0" stop-color="#98d6fa"></stop><stop offset="1" stop-color="#47b0f1"></stop></linearGradient><linearGradient gradientUnits="objectBoundingBox" id="linearGradient-27" node-id="83" spreadMethod="pad" x1="0.4389308" x2="0.5" y1="-0.11452465" y2="0.7856074"><stop offset="0" stop-color="#98d6fa"></stop><stop offset="1" stop-color="#47b0f1"></stop></linearGradient><linearGradient gradientUnits="objectBoundingBox" id="linearGradient-28" node-id="86" spreadMethod="pad" x1="0" x2="1.1322753" y1="0.77603304" y2="0.77603304"><stop offset="0" stop-color="#98d6fa"></stop><stop offset="1" stop-color="#47b0f1"></stop></linearGradient><linearGradient gradientUnits="objectBoundingBox" id="linearGradient-29" node-id="89" spreadMethod="pad" x1="0.99999994" x2="0" y1="-0.11764705" y2="-0.11764705"><stop offset="0" stop-color="#f5dda7"></stop><stop offset="1" stop-color="#fa9a41"></stop></linearGradient><linearGradient gradientUnits="objectBoundingBox" id="linearGradient-30" node-id="92" spreadMethod="pad" x1="0.13965732" x2="0.875197" y1="0.07491416" y2="1.0750235"><stop offset="0" stop-color="#ffb859"></stop><stop offset="1" stop-color="#f97b61"></stop></linearGradient><linearGradient gradientUnits="objectBoundingBox" id="linearGradient-31" node-id="95" spreadMethod="pad" x1="0.020751633" x2="0.5" y1="0.8700848" y2="0.30481097"><stop offset="0" stop-color="#98d6fa"></stop><stop offset="1" stop-color="#47b0f1"></stop></linearGradient><linearGradient gradientUnits="objectBoundingBox" id="linearGradient-32" node-id="98" spreadMethod="pad" x1="1" x2="0.005814659" y1="-0.029698754" y2="-0.029698754"><stop offset="0" stop-color="#f97b61"></stop><stop offset="1" stop-color="#ffb859"></stop></linearGradient><linearGradient gradientUnits="objectBoundingBox" id="linearGradient-33" node-id="101" spreadMethod="pad" x1="1" x2="0.005814659" y1="-0.029698754" y2="-0.029698754"><stop offset="0" stop-color="#f97b61"></stop><stop offset="1" stop-color="#ffb859"></stop></linearGradient><linearGradient gradientUnits="objectBoundingBox" id="linearGradient-34" node-id="104" spreadMethod="pad" x1="0" x2="0.9941853" y1="-0.029698754" y2="-0.029698754"><stop offset="0" stop-color="#ffb859"></stop><stop offset="1" stop-color="#f97b61"></stop></linearGradient><linearGradient gradientUnits="objectBoundingBox" id="linearGradient-35" node-id="107" spreadMethod="pad" x1="0" x2="0.9941853" y1="-0.029698754" y2="-0.029698754"><stop offset="0" stop-color="#ffb859"></stop><stop offset="1" stop-color="#f97b61"></stop></linearGradient><linearGradient gradientUnits="objectBoundingBox" id="linearGradient-36" node-id="110" spreadMethod="pad" x1="0.86275023" x2="-0.000000000000027057475" y1="-0.028050492" y2="-0.028050492"><stop offset="0" stop-color="#1d181c"></stop><stop offset="0.3" stop-color="#2c2422"></stop><stop offset="0.5" stop-color="#42352c"></stop><stop offset="0.7" stop-color="#57352c"></stop><stop offset="1" stop-color="#923629"></stop></linearGradient></defs><g node-id="433"><path d="M 0.00 0.00 L 1024.00 0.00 L 1024.00 1024.00 L 0.00 1024.00 Z" fill="#ffffff" fill-opacity="0" fill-rule="evenodd" group-id="1" id="矩形" node-id="117" stroke="none" target-height="1024" target-width="1024" target-x="0" target-y="0"></path></g><g node-id="434"><g node-id="439"><path d="M 76.80 581.80 L 72.00 559.40 L 67.80 535.60 L 64.20 506.80 L 62.30 480.30 L 62.10 458.20 L 62.40 447.00 L 63.20 435.80 L 64.40 424.60 L 66.10 413.40 L 68.20 402.50 L 70.90 391.90 L 73.40 384.00 L 76.20 376.30 L 79.30 368.90 L 82.80 361.80 L 86.70 354.80 L 91.00 348.20 L 95.70 341.90 L 100.90 335.90 L 106.50 330.30 L 112.60 325.10 L 119.20 320.30 L 126.40 315.90 L 132.30 312.90 L 138.70 310.10 L 145.40 307.60 L 152.70 305.40 L 160.40 303.50 L 178.10 300.10 L 194.90 297.30 L 210.70 295.10 L 226.70 293.30 L 256.00 290.80 L 277.20 289.70 L 333.40 287.30 L 356.00 285.50 L 366.40 284.30 L 376.70 282.70 L 386.60 280.50 L 396.00 278.00 L 402.90 275.70 L 409.70 273.00 L 416.30 270.00 L 422.80 266.50 L 428.90 262.70 L 435.10 258.40 L 441.10 253.50 L 464.00 232.30 L 478.40 220.40 L 490.80 211.80 L 496.90 208.20 L 502.50 205.40 L 507.70 203.20 L 513.00 201.40 L 518.20 200.10 L 528.20 198.70 L 538.70 198.50 L 546.80 199.00 L 575.60 201.60 L 582.90 201.90 L 590.30 201.50 L 597.80 200.60 L 605.20 199.20 L 612.70 197.40 L 620.20 195.20 L 634.70 189.80 L 652.30 181.60 L 662.10 176.40 L 680.00 165.80 L 708.70 147.00 L 721.40 140.80 L 730.30 137.20 L 743.60 132.80 L 759.10 128.80 L 776.30 126.10 L 785.10 125.30 L 794.30 125.00 L 803.80 125.30 L 818.10 126.90 L 832.70 130.20 L 839.90 132.40 L 847.00 135.20 L 854.30 138.60 L 861.50 142.50 L 868.40 146.90 L 875.30 151.90 L 882.20 157.70 L 889.00 164.20 L 894.10 169.60 L 904.10 182.10 L 913.90 197.00 L 922.50 213.10 L 926.70 222.20 L 930.80 232.10 L 938.20 253.20 L 944.60 276.50 L 947.60 289.50 L 950.40 303.50 L 951.90 326.90 L 954.30 374.00 L 955.10 412.60 L 954.60 442.10 L 953.90 456.60 L 952.70 470.50 L 949.70 493.80 L 948.00 503.30 L 943.80 520.80 L 941.10 529.40 L 938.10 537.40 L 934.90 544.90 L 931.30 551.80 L 928.10 557.30 L 924.60 562.30 L 921.00 567.00 L 917.10 571.30 L 907.60 580.30 L 903.20 585.10 L 899.80 589.70 L 897.10 594.00 L 894.80 598.80 L 893.20 603.30 L 892.20 607.60 L 891.80 611.70 L 891.90 616.00 L 892.40 620.00 L 893.40 624.00 L 894.90 627.80 L 898.90 635.00 L 904.30 641.70 L 908.50 645.70 L 913.10 649.40 L 918.10 652.80 L 923.30 655.80 L 928.70 658.40 L 934.10 660.60 L 939.70 662.40 L 945.10 663.80 L 953.50 665.30 L 956.00 666.20 L 958.00 667.40 L 959.50 668.90 L 960.70 670.60 L 961.60 673.10 L 962.00 675.90 L 961.80 679.30 L 961.00 683.40 L 957.90 691.30 L 955.50 695.90 L 952.30 701.00 L 947.80 707.30 L 942.30 714.10 L 935.80 721.30 L 928.80 728.20 L 921.00 735.20 L 912.30 742.40 L 903.30 749.20 L 893.50 755.80 L 883.00 762.30 L 875.00 766.80 L 858.00 775.10 L 843.70 781.10 L 836.30 783.70 L 826.40 786.80 L 810.80 791.10 L 790.70 796.10 L 769.10 800.90 L 743.80 806.00 L 717.30 810.90 L 687.90 815.70 L 657.50 820.10 L 624.90 824.20 L 602.90 826.60 L 556.90 830.60 L 509.90 833.40 L 485.90 834.20 L 461.90 834.60 L 438.00 834.50 L 414.00 834.00 L 390.10 832.90 L 366.50 831.30 L 343.20 829.10 L 325.70 827.10 L 308.60 824.70 L 291.90 821.90 L 275.50 818.80 L 259.10 815.20 L 243.20 811.20 L 227.90 806.80 L 213.00 802.00 L 204.40 798.00 L 196.20 793.60 L 188.40 788.90 L 181.00 783.70 L 173.80 778.20 L 167.00 772.40 L 160.50 766.30 L 154.40 759.90 L 146.60 751.00 L 139.40 741.80 L 132.80 732.30 L 126.60 722.50 L 120.80 712.60 L 115.60 702.60 L 110.70 692.40 L 102.20 672.50 L 96.80 657.60 L 92.20 643.60 L 88.20 629.90 L 82.20 606.10 L 76.80 581.80 Z" fill="#47b0f1" fill-opacity="0.05" fill-rule="nonzero" group-id="2,7" id="路径-58" node-id="119" stroke="none" target-height="709.6" target-width="899.9" target-x="62.1" target-y="125"></path></g><g node-id="440"><path d="M 158.00 329.00 L 161.10 330.60 L 162.30 331.70 L 163.80 334.70 L 164.00 336.50 L 163.70 339.50 L 163.00 341.30 L 161.80 342.80 L 160.30 344.00 L 158.50 344.70 L 156.50 345.00 L 77.50 345.00 L 75.50 344.70 L 73.70 344.00 L 72.20 342.80 L 71.00 341.30 L 70.30 339.50 L 70.00 337.50 L 70.30 334.50 L 71.00 332.70 L 72.20 331.20 L 73.70 330.00 L 75.50 329.30 L 77.50 329.00 L 109.00 329.00 L 110.90 328.70 L 112.50 328.10 L 113.90 327.00 L 115.00 325.70 L 115.70 324.10 L 116.00 322.00 L 115.70 320.10 L 115.10 318.50 L 114.00 317.10 L 112.70 316.00 L 111.10 315.30 L 109.20 315.00 L 106.00 315.00 L 104.30 314.30 L 101.70 312.30 L 100.20 309.30 L 100.00 306.50 L 100.30 304.50 L 101.00 302.70 L 102.20 301.20 L 103.70 300.00 L 105.50 299.30 L 107.50 299.00 L 186.50 299.00 L 188.50 299.30 L 190.30 300.00 L 191.80 301.20 L 193.00 302.70 L 193.70 304.50 L 194.00 307.50 L 193.70 309.50 L 193.00 311.30 L 191.80 312.80 L 190.30 314.00 L 188.50 314.70 L 186.50 315.00 L 155.00 315.00 L 153.10 315.30 L 151.50 315.90 L 150.10 317.00 L 149.00 318.30 L 148.30 319.90 L 148.00 321.80 L 148.30 323.90 L 148.90 325.50 L 150.00 326.90 L 151.30 328.00 L 152.90 328.70 L 154.80 329.00 L 158.00 329.00 Z" fill="url(#linearGradient1)" fill-opacity="0.1" fill-rule="nonzero" group-id="2,8" id="形状结合" node-id="120" stroke="none" target-height="46" target-width="124" target-x="70" target-y="299"></path></g><g node-id="441"><path d="M 858.00 159.00 L 861.10 160.60 L 862.30 161.70 L 863.80 164.70 L 864.00 166.50 L 863.70 169.50 L 863.00 171.30 L 861.80 172.80 L 860.30 174.00 L 858.50 174.70 L 856.50 175.00 L 777.50 175.00 L 775.50 174.70 L 773.70 174.00 L 772.20 172.80 L 771.00 171.30 L 770.30 169.50 L 770.00 167.50 L 770.30 164.50 L 771.00 162.70 L 772.20 161.20 L 773.70 160.00 L 775.50 159.30 L 777.50 159.00 L 809.00 159.00 L 810.90 158.70 L 812.50 158.10 L 813.90 157.00 L 815.00 155.70 L 815.70 154.10 L 816.00 152.00 L 815.70 150.10 L 815.10 148.50 L 814.00 147.10 L 812.70 146.00 L 811.10 145.30 L 809.20 145.00 L 806.00 145.00 L 804.30 144.30 L 801.70 142.30 L 800.20 139.30 L 800.00 136.50 L 800.30 134.50 L 801.00 132.70 L 802.20 131.20 L 803.70 130.00 L 805.50 129.30 L 807.50 129.00 L 886.50 129.00 L 888.50 129.30 L 890.30 130.00 L 891.80 131.20 L 893.00 132.70 L 893.70 134.50 L 894.00 137.50 L 893.70 139.50 L 893.00 141.30 L 891.80 142.80 L 890.30 144.00 L 888.50 144.70 L 886.50 145.00 L 855.00 145.00 L 853.10 145.30 L 851.50 145.90 L 850.10 147.00 L 849.00 148.30 L 848.30 149.90 L 848.00 151.80 L 848.30 153.90 L 848.90 155.50 L 850.00 156.90 L 851.30 158.00 L 852.90 158.70 L 854.80 159.00 L 858.00 159.00 Z" fill="url(#linearGradient-1)" fill-opacity="0.1" fill-rule="nonzero" group-id="2,9" id="形状结合" node-id="121" stroke="none" target-height="46" target-width="124" target-x="770" target-y="129"></path></g><path d="M 514.50 712.00 L 547.40 712.20 L 579.20 712.90 L 610.10 714.00 L 640.90 715.50 L 670.40 717.30 L 698.60 719.50 L 726.80 722.20 L 753.30 725.20 L 778.10 728.40 L 802.90 732.10 L 825.60 736.00 L 846.30 740.00 L 859.80 740.30 L 872.70 741.10 L 885.10 742.20 L 897.50 743.80 L 909.10 745.70 L 920.00 747.90 L 930.80 750.50 L 940.60 753.40 L 949.40 756.50 L 958.20 760.10 L 965.70 763.80 L 972.20 767.60 L 976.90 770.80 L 980.80 774.10 L 984.10 777.30 L 986.80 780.60 L 989.10 784.20 L 990.70 787.80 L 991.70 791.40 L 992.00 795.00 L 991.70 798.50 L 990.80 802.00 L 989.30 805.50 L 987.10 809.00 L 984.60 812.20 L 981.50 815.30 L 977.70 818.50 L 973.30 821.70 L 967.20 825.40 L 960.00 829.10 L 951.80 832.60 L 943.30 835.70 L 934.00 838.50 L 923.80 841.20 L 913.50 843.50 L 902.40 845.50 L 890.60 847.10 L 863.20 854.20 L 847.50 857.70 L 848.00 864.00 L 847.70 868.40 L 846.90 872.70 L 845.60 877.00 L 843.80 881.30 L 841.30 885.60 L 835.40 893.40 L 827.30 901.40 L 822.40 905.30 L 816.20 909.80 L 809.20 914.20 L 801.40 918.50 L 792.60 922.80 L 784.00 926.60 L 764.50 933.90 L 742.80 940.40 L 719.50 946.00 L 706.80 948.40 L 690.00 951.20 L 672.40 953.60 L 653.80 955.50 L 635.20 956.90 L 615.90 957.70 L 596.00 958.00 L 565.00 957.30 L 550.20 956.50 L 521.10 953.80 L 507.10 952.00 L 480.70 947.60 L 467.60 944.90 L 443.60 938.90 L 421.50 931.80 L 411.30 928.00 L 401.90 924.00 L 393.30 919.90 L 384.60 915.20 L 377.00 910.50 L 370.20 905.80 L 364.40 901.10 L 359.80 896.80 L 355.80 892.60 L 352.50 888.30 L 349.80 884.10 L 347.60 879.90 L 319.60 877.50 L 293.20 874.90 L 268.30 872.00 L 243.40 868.70 L 220.40 865.10 L 199.20 861.40 L 178.00 857.20 L 159.00 852.80 L 142.00 848.40 L 129.10 844.60 L 117.70 840.90 L 107.70 837.10 L 98.80 833.50 L 91.40 830.00 L 85.10 826.50 L 79.80 823.20 L 71.50 816.90 L 68.40 813.70 L 66.00 810.60 L 64.20 807.70 L 63.00 804.80 L 62.30 801.90 L 62.00 799.00 L 62.20 796.20 L 63.00 793.30 L 64.10 790.50 L 65.90 787.60 L 68.20 784.60 L 71.20 781.50 L 74.80 778.40 L 84.30 771.90 L 90.40 768.60 L 106.10 761.50 L 115.80 757.80 L 126.80 754.10 L 139.20 750.40 L 155.60 746.00 L 174.00 741.70 L 194.50 737.50 L 215.00 733.80 L 237.30 730.20 L 261.40 726.90 L 285.50 723.90 L 311.10 721.30 L 338.30 718.80 L 393.70 715.10 L 423.30 713.80 L 483.20 712.20 L 514.50 712.00 Z" fill="url(#linearGradient-2)" fill-rule="nonzero" group-id="2" id="形状结合" node-id="122" stroke="none" target-height="246" target-width="930" target-x="62" target-y="712"></path><g node-id="442"><path d="M 686.60 226.60 L 685.00 222.90 L 683.00 219.70 L 680.60 216.80 L 677.80 214.20 L 674.80 212.00 L 671.40 210.10 L 664.30 207.50 L 660.50 206.70 L 656.70 206.30 L 649.20 206.60 L 655.10 203.70 L 658.40 202.60 L 661.90 201.80 L 668.80 201.10 L 672.30 201.30 L 675.60 201.80 L 678.70 202.80 L 681.70 204.20 L 684.30 206.10 L 686.60 208.50 L 688.90 206.20 L 691.60 204.30 L 694.50 202.90 L 697.60 202.00 L 700.90 201.40 L 704.40 201.20 L 711.40 201.90 L 714.80 202.70 L 721.20 205.10 L 724.00 206.70 L 716.60 206.40 L 709.00 207.60 L 701.80 210.30 L 698.50 212.20 L 695.40 214.40 L 692.60 216.90 L 690.20 219.80 L 688.20 223.00 L 686.60 226.60 Z" fill="url(#linearGradient-3)" fill-rule="nonzero" group-id="2,10" id="路径" node-id="124" stroke="none" target-height="25.5" target-width="74.79999" target-x="649.2" target-y="201.1"></path><path d="M 770.00 214.10 L 768.90 211.50 L 765.90 207.30 L 763.90 205.50 L 761.00 203.50 L 757.90 201.90 L 754.50 200.80 L 751.00 200.20 L 747.50 200.00 L 744.10 200.20 L 747.10 198.70 L 750.50 197.40 L 754.10 196.70 L 757.70 196.40 L 760.10 196.50 L 764.60 197.60 L 768.40 199.90 L 770.00 201.60 L 771.60 199.90 L 775.50 197.70 L 780.00 196.60 L 782.40 196.50 L 786.00 196.70 L 789.60 197.50 L 793.00 198.70 L 796.00 200.30 L 792.50 200.00 L 789.10 200.30 L 785.50 200.90 L 782.10 202.10 L 779.00 203.60 L 776.10 205.60 L 773.60 208.00 L 771.60 210.80 L 770.00 214.10 Z" fill="url(#linearGradient2)" fill-rule="nonzero" group-id="2,10" id="路径" node-id="125" stroke="none" target-height="17.700012" target-width="51.900024" target-x="744.1" target-y="196.4"></path><path d="M 735.20 179.60 L 734.10 177.00 L 731.10 172.80 L 729.10 171.00 L 726.30 169.00 L 723.10 167.50 L 719.70 166.30 L 716.20 165.70 L 712.80 165.50 L 709.30 165.80 L 712.30 164.20 L 715.70 162.90 L 719.30 162.20 L 722.90 161.90 L 725.30 162.00 L 729.80 163.10 L 733.60 165.40 L 735.20 167.10 L 736.90 165.50 L 740.70 163.20 L 745.20 162.10 L 747.60 162.00 L 751.20 162.30 L 754.80 163.00 L 758.20 164.20 L 761.20 165.80 L 757.70 165.60 L 754.30 165.80 L 750.70 166.50 L 747.40 167.60 L 744.20 169.10 L 741.30 171.10 L 738.80 173.50 L 736.80 176.40 L 735.20 179.60 Z" fill="url(#linearGradient-4)" fill-rule="nonzero" group-id="2,10" id="路径" node-id="126" stroke="none" target-height="17.700012" target-width="51.900024" target-x="709.3" target-y="161.9"></path><path d="M 840.70 220.10 L 839.60 217.70 L 838.20 215.80 L 834.50 212.70 L 830.00 210.90 L 827.50 210.40 L 822.70 210.40 L 825.60 209.00 L 828.80 208.10 L 831.10 207.80 L 835.40 208.10 L 837.40 208.80 L 839.20 209.90 L 840.70 211.40 L 842.30 209.90 L 844.00 208.90 L 848.20 207.90 L 852.60 208.20 L 855.90 209.10 L 858.70 210.50 L 853.90 210.50 L 851.50 210.90 L 847.00 212.80 L 843.20 215.80 L 841.80 217.80 L 840.70 220.10 Z" fill="url(#linearGradient-5)" fill-rule="nonzero" group-id="2,10" id="路径" node-id="127" stroke="none" target-height="12.300003" target-width="36" target-x="822.7" target-y="207.8"></path></g><g node-id="443"><g node-id="453"><path d="M 54.20 676.40 L 46.30 673.20 L 39.60 671.00 L 34.00 669.60 L 29.20 669.10 L 25.20 669.10 L 21.90 669.60 L 19.00 670.60 L 16.60 672.00 L 14.60 673.80 L 12.90 676.10 L 11.50 678.90 L 10.50 682.40 L 9.80 686.70 L 9.70 691.80 L 10.10 698.00 L 11.40 702.80 L 12.80 706.60 L 14.50 709.60 L 16.30 712.00 L 18.30 713.70 L 20.40 715.00 L 26.40 722.60 L 31.10 729.40 L 34.70 735.30 L 37.30 740.50 L 39.10 745.10 L 40.20 749.10 L 41.40 756.80 L 42.60 761.10 L 45.40 766.30 L 47.20 768.70 L 49.40 770.80 L 51.90 772.70 L 54.90 774.20 L 58.00 775.30 L 61.60 776.00 L 65.80 776.30 L 70.00 776.00 L 74.80 775.10 L 84.90 772.40 L 89.00 771.90 L 92.70 772.00 L 96.20 772.70 L 99.40 774.00 L 102.50 775.80 L 105.50 778.30 L 108.30 781.50 L 111.00 785.60 L 113.60 790.60 L 116.00 796.80 L 118.20 804.30 L 122.60 809.50 L 127.30 814.30 L 132.50 818.70 L 138.10 822.70 L 144.20 826.20 L 150.80 829.30 L 157.90 832.10 L 165.60 834.30 L 174.00 836.10 L 183.00 837.50 L 192.80 838.30 L 203.40 838.50 L 214.90 838.20 L 227.40 837.10 L 236.50 835.90 L 243.80 834.30 L 249.60 832.60 L 254.10 830.60 L 257.60 828.50 L 260.10 826.40 L 262.00 824.10 L 263.20 821.70 L 263.90 819.10 L 264.00 816.20 L 263.50 813.10 L 262.30 809.50 L 260.30 805.50 L 257.20 800.80 L 252.80 795.40 L 246.90 789.30 L 239.30 782.30 L 229.50 774.30 L 217.40 765.20 L 204.80 760.40 L 194.80 757.00 L 178.50 752.80 L 176.50 751.70 L 174.60 750.20 L 173.00 748.10 L 171.50 745.50 L 170.30 742.10 L 169.30 737.80 L 168.70 732.50 L 168.30 722.70 L 167.60 719.80 L 166.30 716.90 L 164.60 714.30 L 162.30 711.80 L 159.40 709.30 L 155.70 707.00 L 151.10 704.90 L 140.10 700.80 L 135.70 698.60 L 132.30 696.30 L 129.80 693.90 L 127.90 691.40 L 126.70 688.80 L 126.00 686.00 L 125.90 683.00 L 126.40 679.70 L 123.30 675.60 L 120.20 672.40 L 117.20 670.00 L 114.20 668.30 L 111.20 667.20 L 108.10 666.70 L 104.90 666.70 L 101.60 667.30 L 98.00 668.60 L 94.20 670.50 L 85.40 676.60 L 81.00 679.00 L 77.00 680.70 L 73.20 681.70 L 69.70 682.20 L 66.40 682.10 L 63.20 681.50 L 60.20 680.30 L 57.10 678.70 L 54.20 676.40 Z" fill="url(#linearGradient-6)" fill-rule="nonzero" group-id="2,11,21" id="路径-61" node-id="129" stroke="none" target-height="171.79999" target-width="254.3" target-x="9.7" target-y="666.7"></path></g><g node-id="454"><path d="M 52.60 691.50 L 100.90 723.70 L 98.80 713.80 L 96.60 705.40 L 94.40 698.30 L 91.10 689.70 L 95.50 699.40 L 98.90 708.20 L 101.70 717.30 L 102.60 721.60 L 102.90 725.00 L 143.10 751.90 L 143.60 731.40 L 143.20 724.50 L 142.50 719.30 L 141.70 715.50 L 143.30 720.10 L 144.00 723.60 L 145.70 737.50 L 146.10 746.60 L 145.60 753.60 L 182.70 778.30 L 182.30 777.90 L 183.10 769.80 L 183.20 762.80 L 182.50 756.40 L 183.70 760.00 L 184.50 766.40 L 184.90 773.70 L 184.80 779.80 L 215.40 800.10 L 211.50 804.00 L 180.00 781.70 L 174.00 784.40 L 165.90 786.40 L 161.40 786.90 L 154.10 786.90 L 160.70 786.10 L 166.20 784.90 L 170.60 783.40 L 174.20 781.70 L 177.00 779.80 L 179.50 781.30 L 90.70 718.50 L 91.30 719.10 L 84.50 719.90 L 78.10 720.10 L 72.10 719.90 L 66.40 719.30 L 61.00 718.20 L 55.80 716.80 L 57.00 716.50 L 65.80 718.00 L 70.40 718.50 L 76.10 718.80 L 84.30 718.10 L 88.90 717.20 L 52.60 691.50 Z M 94.00 768.40 L 98.00 768.20 L 102.50 767.40 L 107.50 765.90 L 113.20 763.60 L 119.70 760.20 L 126.90 755.80 L 135.10 750.10 L 137.40 752.30 L 131.90 756.30 L 126.50 759.70 L 121.30 762.40 L 115.90 764.80 L 110.90 766.50 L 106.20 767.70 L 101.50 768.40 L 97.40 768.60 L 94.00 768.40 Z" fill="url(#linearGradient3)" fill-rule="nonzero" group-id="2,11,22" id="形状结合" node-id="130" stroke="none" target-height="114.29999" target-width="162.79999" target-x="52.6" target-y="689.7"></path></g><path d="M 89.60 607.30 L 82.10 602.50 L 75.80 599.00 L 70.40 596.60 L 65.80 595.10 L 61.90 594.30 L 58.70 594.20 L 55.90 594.50 L 53.50 595.30 L 51.40 596.50 L 49.50 598.20 L 48.00 600.50 L 46.60 603.30 L 45.60 606.90 L 44.90 611.40 L 44.60 616.90 L 44.80 623.80 L 50.10 645.00 L 52.00 654.30 L 53.20 662.40 L 53.50 667.70 L 53.50 672.80 L 52.70 680.50 L 52.90 687.50 L 54.40 695.10 L 57.40 703.20 L 59.50 707.20 L 62.20 711.20 L 65.20 714.90 L 68.90 718.60 L 73.20 722.10 L 80.40 726.60 L 84.80 728.60 L 95.70 732.90 L 100.50 735.30 L 104.30 737.70 L 107.10 740.10 L 109.20 742.60 L 110.70 745.00 L 111.60 747.40 L 112.00 750.00 L 111.80 752.70 L 111.10 755.60 L 109.80 758.80 L 107.70 762.30 L 107.20 765.70 L 107.20 769.00 L 107.80 772.10 L 109.00 775.20 L 110.70 778.20 L 113.00 781.20 L 116.20 784.20 L 120.20 787.20 L 125.20 790.30 L 131.30 793.30 L 138.80 796.30 L 147.80 799.30 L 158.50 802.20 L 171.10 805.00 L 185.90 807.70 L 198.10 809.40 L 208.20 810.50 L 216.30 810.90 L 227.90 810.60 L 235.60 809.40 L 239.20 808.20 L 241.90 806.80 L 244.00 805.30 L 245.60 803.70 L 246.80 801.80 L 247.60 799.70 L 248.10 797.40 L 248.10 794.80 L 247.60 791.40 L 246.60 787.50 L 245.00 783.30 L 241.90 776.90 L 238.00 769.90 L 229.00 755.50 L 223.50 749.60 L 219.50 744.60 L 217.20 741.20 L 214.00 735.30 L 212.50 730.80 L 211.60 726.60 L 211.10 722.30 L 211.20 714.70 L 212.80 703.80 L 212.90 700.00 L 212.60 696.20 L 211.10 691.40 L 209.70 689.00 L 207.90 686.80 L 205.60 684.70 L 202.40 682.60 L 199.00 680.80 L 194.70 679.20 L 185.70 676.50 L 182.50 675.00 L 179.60 673.00 L 177.00 670.50 L 174.60 667.50 L 172.40 664.00 L 170.50 659.70 L 168.90 654.60 L 167.60 648.70 L 166.60 641.70 L 166.20 633.60 L 165.40 630.60 L 164.10 628.00 L 162.50 625.90 L 160.40 624.10 L 157.80 622.60 L 154.50 621.50 L 150.60 620.80 L 145.70 620.50 L 139.80 620.90 L 132.70 621.90 L 124.20 623.80 L 120.60 624.20 L 117.10 624.20 L 113.50 623.60 L 109.80 622.50 L 106.10 620.90 L 102.20 618.60 L 98.20 615.60 L 94.00 611.90 L 89.60 607.30 Z" fill="url(#linearGradient-8)" fill-rule="nonzero" group-id="2,11" id="路径-65" node-id="131" stroke="none" target-height="216.70001" target-width="203.5" target-x="44.6" target-y="594.2"></path><g node-id="455"><path d="M 74.90 624.70 L 110.40 669.80 L 112.10 664.90 L 113.30 660.20 L 113.90 655.50 L 114.10 650.80 L 113.70 646.10 L 112.70 641.00 L 115.50 650.00 L 116.10 653.60 L 116.20 657.40 L 115.70 661.90 L 115.00 664.80 L 112.10 672.00 L 142.10 710.20 L 144.90 705.70 L 147.10 701.00 L 148.90 695.80 L 150.20 690.00 L 151.00 683.60 L 151.30 676.50 L 152.00 682.20 L 151.90 686.40 L 151.50 691.60 L 150.50 696.90 L 149.10 702.50 L 147.70 706.10 L 144.10 712.70 L 170.80 746.60 L 173.00 742.50 L 175.50 736.20 L 176.30 732.50 L 176.60 728.40 L 177.10 734.60 L 176.80 738.00 L 175.30 744.10 L 172.70 749.10 L 212.00 799.00 L 205.80 799.00 L 167.80 748.40 L 159.10 751.60 L 150.20 753.20 L 145.90 753.40 L 142.00 753.10 L 138.90 752.40 L 134.00 750.70 L 138.20 751.50 L 142.40 751.80 L 146.80 751.60 L 151.20 750.90 L 155.90 749.80 L 160.70 748.00 L 165.70 745.70 L 136.90 707.20 L 137.40 708.10 L 130.10 710.40 L 123.00 712.10 L 115.90 713.20 L 109.40 713.80 L 103.10 713.90 L 97.70 713.40 L 94.30 712.80 L 89.00 710.90 L 92.30 711.90 L 96.10 712.50 L 100.60 712.70 L 105.80 712.50 L 111.80 711.80 L 118.70 710.40 L 126.80 708.30 L 136.00 705.30 L 135.50 705.50 L 103.40 662.60 L 103.60 663.10 L 98.20 663.20 L 93.20 662.70 L 88.60 661.80 L 84.30 660.30 L 80.30 658.40 L 76.60 656.00 L 73.00 653.10 L 69.70 649.70 L 70.20 649.60 L 71.50 650.40 L 78.00 654.90 L 81.50 656.70 L 85.40 658.30 L 93.70 660.30 L 101.90 660.60 L 74.90 624.70 Z" fill="url(#linearGradient-9)" fill-rule="nonzero" group-id="2,11,23" id="形状结合" node-id="132" stroke="none" target-height="174.29999" target-width="142.3" target-x="69.7" target-y="624.7"></path></g><path d="M 199.20 608.80 L 202.80 604.30 L 206.00 601.10 L 208.90 599.00 L 211.60 597.70 L 214.20 597.10 L 216.60 597.10 L 219.00 597.70 L 221.50 599.00 L 224.00 601.10 L 226.70 604.10 L 229.60 608.30 L 232.60 614.00 L 233.70 619.30 L 235.70 635.20 L 237.40 640.00 L 238.80 642.10 L 240.60 644.10 L 243.10 646.20 L 245.90 647.90 L 249.60 649.70 L 258.50 653.10 L 261.70 654.90 L 264.20 656.80 L 266.10 658.90 L 267.50 661.10 L 268.40 663.60 L 268.80 666.20 L 268.80 669.20 L 268.10 672.50 L 266.80 676.30 L 264.80 680.70 L 261.80 685.70 L 260.40 689.50 L 259.80 692.70 L 259.80 695.50 L 260.40 697.90 L 261.50 700.10 L 263.10 702.00 L 265.30 703.70 L 268.40 705.30 L 275.10 707.50 L 277.10 708.80 L 278.60 710.30 L 279.60 712.10 L 280.20 714.30 L 280.30 716.90 L 279.80 720.20 L 278.50 724.30 L 276.30 729.30 L 272.90 735.40 L 268.10 742.80 L 265.90 748.50 L 264.70 753.10 L 264.30 756.80 L 264.50 759.90 L 265.30 762.30 L 266.40 764.30 L 270.50 768.00 L 274.90 773.10 L 278.10 778.90 L 279.30 782.20 L 280.30 785.90 L 280.90 790.20 L 281.00 794.50 L 280.60 799.30 L 279.60 804.90 L 278.10 810.30 L 275.70 816.40 L 272.40 823.40 L 270.30 826.90 L 265.70 832.40 L 263.30 834.50 L 259.80 836.80 L 256.10 838.40 L 252.40 839.40 L 248.50 839.90 L 244.50 839.90 L 240.50 839.40 L 236.60 838.50 L 228.90 835.70 L 223.40 832.90 L 218.40 829.60 L 213.90 825.90 L 210.30 822.30 L 208.20 819.60 L 205.60 815.00 L 204.60 811.70 L 203.90 808.30 L 203.70 804.80 L 204.00 799.40 L 207.20 778.30 L 207.40 773.70 L 207.20 770.80 L 206.60 768.30 L 205.60 766.00 L 202.50 762.60 L 200.20 760.90 L 187.20 753.40 L 179.80 748.20 L 174.90 742.90 L 173.00 739.90 L 171.60 736.50 L 170.60 732.60 L 170.30 729.70 L 171.00 722.70 L 172.00 718.50 L 179.60 708.10 L 183.00 703.00 L 184.70 698.50 L 185.00 693.20 L 183.80 686.80 L 182.30 682.90 L 177.40 673.00 L 170.90 661.70 L 170.50 660.10 L 170.50 658.40 L 171.20 656.40 L 174.40 651.00 L 180.20 642.10 L 183.50 638.30 L 187.00 633.30 L 190.80 626.90 L 194.90 618.80 L 199.20 608.80 Z" fill="url(#linearGradient-10)" fill-rule="nonzero" group-id="2,11" id="路径-96" node-id="133" stroke="none" target-height="242.80005" target-width="110.7" target-x="170.3" target-y="597.1"></path><path d="M 216.10 638.50 L 227.50 695.40 L 233.00 686.90 L 237.40 679.40 L 240.80 672.80 L 244.60 664.50 L 240.80 674.40 L 237.00 683.00 L 232.50 691.40 L 230.10 695.10 L 227.90 697.80 L 237.40 745.20 L 252.20 731.00 L 256.80 725.90 L 260.00 721.80 L 262.10 718.50 L 260.00 722.80 L 258.00 725.80 L 249.40 736.80 L 243.20 743.60 L 238.00 748.20 L 246.70 791.80 L 246.70 791.30 L 252.90 786.10 L 258.00 781.30 L 262.10 776.30 L 260.30 779.60 L 256.40 784.70 L 251.50 790.20 L 247.20 794.40 L 254.40 830.40 L 248.90 830.40 L 242.40 792.30 L 236.20 790.00 L 229.10 785.70 L 225.60 782.90 L 220.40 777.80 L 225.70 781.80 L 230.30 784.80 L 234.50 786.90 L 238.30 788.20 L 241.70 788.90 L 242.30 791.80 L 224.00 684.50 L 223.90 685.40 L 218.60 681.10 L 213.90 676.80 L 209.80 672.40 L 206.20 667.90 L 203.10 663.30 L 200.50 658.60 L 201.50 659.20 L 206.70 666.60 L 209.60 670.20 L 213.50 674.40 L 219.70 679.70 L 223.60 682.30 L 216.10 638.50 Z M 191.00 722.10 L 193.90 724.80 L 197.70 727.40 L 202.30 729.90 L 208.00 732.30 L 214.90 734.50 L 223.20 736.50 L 233.00 738.30 L 233.00 741.40 L 226.30 740.40 L 220.10 738.90 L 214.50 737.20 L 209.00 735.00 L 204.20 732.70 L 200.10 730.30 L 196.30 727.50 L 193.30 724.70 L 191.00 722.10 Z" fill="url(#linearGradient-7)" fill-rule="nonzero" group-id="2,11" id="形状结合" node-id="134" stroke="none" target-height="191.90002" target-width="71.100006" target-x="191" target-y="638.5"></path></g><g node-id="444"><path d="M 938.40 787.50 L 938.90 781.40 L 938.90 776.10 L 938.40 771.50 L 937.50 767.50 L 936.20 764.20 L 934.50 761.20 L 932.50 758.70 L 930.20 756.60 L 927.40 754.80 L 924.10 753.40 L 920.40 752.30 L 916.00 751.60 L 921.00 751.40 L 925.50 751.60 L 929.70 752.30 L 933.60 753.30 L 937.10 754.70 L 940.60 756.50 L 943.70 758.70 L 946.50 761.20 L 949.00 764.00 L 951.20 767.30 L 952.90 770.60 L 954.30 774.30 L 955.40 778.30 L 956.10 782.70 L 956.40 787.50 L 938.40 787.50 Z" fill="url(#linearGradient-11)" fill-rule="nonzero" group-id="2,12" id="路径-38" node-id="136" stroke="none" target-height="36.099976" target-width="40.400024" target-x="916" target-y="751.4"></path><path d="M 950.10 787.60 L 951.20 781.20 L 951.70 775.20 L 951.60 769.80 L 951.00 764.70 L 949.80 760.10 L 948.20 755.70 L 946.20 751.70 L 943.60 747.90 L 940.60 744.40 L 936.90 741.10 L 932.70 738.00 L 937.90 739.70 L 947.20 743.90 L 951.40 746.40 L 955.40 749.40 L 959.00 752.80 L 963.80 758.90 L 965.90 762.60 L 969.50 771.00 L 972.30 781.40 L 973.40 787.60 L 959.30 788.00 L 950.10 787.60 Z" fill="url(#linearGradient-12)" fill-rule="nonzero" group-id="2,12" id="路径-39" node-id="137" stroke="none" target-height="50" target-width="40.700012" target-x="932.7" target-y="738"></path><path d="M 977.10 788.00 L 976.70 781.70 L 977.00 776.30 L 977.80 771.60 L 979.00 767.50 L 980.60 763.90 L 982.70 760.80 L 985.10 758.20 L 988.00 755.90 L 991.40 754.00 L 995.40 752.50 L 1000.00 751.40 L 990.20 751.40 L 986.90 751.70 L 980.20 753.10 L 977.00 754.40 L 973.80 756.20 L 970.50 758.50 L 967.50 761.30 L 964.50 764.90 L 961.30 769.50 L 958.60 774.40 L 955.90 780.50 L 953.10 788.00 L 968.30 787.70 L 977.10 788.00 Z" fill="url(#linearGradient-13)" fill-rule="nonzero" group-id="2,12" id="路径-40" node-id="138" stroke="none" target-height="36.599976" target-width="46.900024" target-x="953.1" target-y="751.4"></path><path d="M 927.40 802.00 L 942.70 801.50 L 948.50 800.20 L 951.00 799.10 L 953.10 797.60 L 954.70 795.70 L 955.70 794.10 L 956.80 789.60 L 957.00 786.60 L 956.70 782.70 L 955.90 779.00 L 954.60 775.50 L 952.80 772.20 L 950.70 769.10 L 948.10 766.40 L 945.10 764.00 L 941.90 761.90 L 938.40 760.20 L 934.60 759.00 L 930.70 758.30 L 926.50 758.00 L 922.30 758.30 L 918.40 759.00 L 914.60 760.20 L 911.10 761.90 L 907.90 764.00 L 904.90 766.40 L 902.30 769.10 L 900.20 772.20 L 898.40 775.50 L 897.10 779.00 L 896.30 782.70 L 896.00 786.60 L 896.20 789.60 L 897.50 794.00 L 898.50 795.70 L 900.40 797.60 L 902.60 799.10 L 905.40 800.20 L 911.60 801.50 L 927.40 802.00 Z" fill="url(#linearGradient-14)" fill-rule="nonzero" group-id="2,12" id="椭圆形" node-id="139" stroke="none" target-height="44" target-width="61" target-x="896" target-y="758"></path><path d="M 960.60 802.00 L 971.10 801.60 L 975.30 800.20 L 977.60 798.10 L 978.30 796.70 L 979.00 792.60 L 978.70 789.40 L 977.80 786.40 L 976.40 783.70 L 974.50 781.20 L 972.30 779.20 L 969.60 777.40 L 966.70 776.10 L 963.50 775.30 L 960.00 775.00 L 956.50 775.30 L 953.30 776.10 L 950.40 777.40 L 947.70 779.20 L 945.50 781.20 L 943.60 783.70 L 942.20 786.40 L 941.30 789.40 L 941.00 792.60 L 941.20 794.90 L 941.80 796.70 L 942.60 798.10 L 945.10 800.20 L 949.70 801.60 L 960.60 802.00 Z" fill="url(#linearGradient-15)" fill-rule="nonzero" group-id="2,12" id="椭圆形备份-6" node-id="140" stroke="none" target-height="27" target-width="38" target-x="941" target-y="775"></path></g></g><g node-id="435"><path d="M 465.10 389.90 L 468.50 390.50 L 470.00 391.20 L 472.00 392.80 L 473.60 394.80 L 474.30 396.30 L 474.90 399.80 L 474.90 759.20 L 474.30 762.60 L 473.60 764.20 L 472.00 766.20 L 470.00 767.70 L 466.90 768.90 L 465.10 769.10 L 461.60 768.40 L 460.10 767.70 L 458.10 766.20 L 456.50 764.20 L 455.80 762.60 L 455.20 759.20 L 455.20 399.80 L 455.80 396.30 L 456.50 394.80 L 458.10 392.80 L 460.10 391.20 L 461.60 390.50 L 465.10 389.90 Z" fill="url(#linearGradient-16)" fill-rule="nonzero" group-id="3" id="矩形" node-id="142" stroke="none" target-height="379.19998" target-width="19.699982" target-x="455.2" target-y="389.9"></path><path d="M 335.10 419.50 L 591.90 433.00 L 620.00 468.80 L 588.30 501.50 L 331.50 488.00 L 363.30 455.30 Z" fill="url(#linearGradient-17)" fill-rule="nonzero" group-id="3" id="矩形" node-id="143" stroke="none" target-height="82" target-width="288.5" target-x="331.5" target-y="419.5"></path><g node-id="445"><path d="M 426.70 467.30 L 429.00 467.10 L 431.00 466.40 L 432.70 465.20 L 434.10 463.60 L 435.00 461.60 L 435.40 459.50 L 435.20 457.20 L 434.50 455.20 L 433.30 453.50 L 431.70 452.10 L 429.80 451.20 L 427.60 450.80 L 425.40 451.00 L 423.40 451.70 L 421.70 452.90 L 420.30 454.50 L 419.40 456.40 L 418.90 458.60 L 419.10 460.80 L 419.90 462.80 L 421.10 464.50 L 422.70 465.90 L 424.60 466.80 L 426.70 467.30 Z M 476.20 469.00 L 478.40 468.80 L 480.40 468.10 L 482.10 466.90 L 483.50 465.30 L 484.40 463.40 L 484.80 461.20 L 484.60 459.00 L 483.90 457.00 L 482.70 455.20 L 481.10 453.90 L 479.20 452.90 L 477.00 452.50 L 474.80 452.70 L 472.80 453.40 L 471.10 454.60 L 469.70 456.20 L 468.80 458.10 L 468.40 460.30 L 468.50 462.50 L 469.30 464.50 L 470.50 466.30 L 472.10 467.60 L 474.00 468.60 L 476.20 469.00 Z M 525.60 470.70 L 527.80 470.50 L 529.80 469.80 L 531.50 468.60 L 532.90 467.00 L 533.80 465.10 L 534.20 462.90 L 534.10 460.70 L 533.30 458.70 L 532.10 457.00 L 530.50 455.60 L 528.60 454.70 L 526.40 454.20 L 524.20 454.40 L 522.20 455.20 L 520.50 456.40 L 519.10 458.00 L 518.20 459.90 L 517.80 462.00 L 518.00 464.30 L 518.70 466.30 L 519.90 468.00 L 521.50 469.40 L 523.40 470.30 L 525.60 470.70 Z" fill="#ffffff" fill-rule="evenodd" group-id="3,13" id="形状结合" node-id="144" stroke="none" target-height="19.900024" target-width="115.30002" target-x="418.9" target-y="450.8"></path></g><g node-id="446"><path d="M 576.20 521.60 L 384.30 521.60 L 362.00 547.20 L 384.30 572.80 L 576.20 572.80 L 553.80 547.20 Z" fill="url(#linearGradient-18)" fill-rule="nonzero" group-id="3,14" id="矩形备份-10" node-id="145" stroke="none" target-height="51.200012" target-width="214.20001" target-x="362" target-y="521.6"></path></g><g node-id="447"><path d="M 348.30 596.40 L 539.50 579.70 L 564.00 603.20 L 544.00 630.70 L 352.80 647.40 L 372.90 620.00 Z" fill="url(#linearGradient-19)" fill-rule="nonzero" group-id="3,15" id="矩形备份-11" node-id="146" stroke="none" target-height="67.70001" target-width="215.70001" target-x="348.3" target-y="579.7"></path></g><g node-id="448"><g node-id="456"><path d="M 794.50 395.10 L 783.70 398.70 L 773.50 401.40 L 763.90 403.50 L 754.80 404.80 L 746.20 405.50 L 738.00 405.60 L 730.30 405.10 L 722.90 404.00 L 715.90 402.40 L 709.20 400.30 L 702.80 397.70 L 699.00 395.50 L 695.80 392.90 L 693.20 390.10 L 690.90 386.90 L 689.20 383.60 L 687.90 380.10 L 687.10 376.60 L 686.80 373.20 L 687.00 369.90 L 687.70 366.70 L 688.80 363.90 L 690.30 361.40 L 693.40 358.40 L 697.70 356.60 L 701.70 356.00 L 705.40 356.00 L 708.90 356.50 L 712.30 357.70 L 715.40 359.30 L 718.30 361.40 L 721.10 364.00 L 723.60 367.30 L 725.80 370.70 L 727.70 374.70 L 729.40 379.20 L 730.80 384.40 L 731.80 389.60 L 732.40 394.90 L 732.40 406.10 L 731.00 417.10 L 729.70 422.50 L 728.00 427.60 L 726.10 432.50 L 723.70 437.10 L 721.10 441.30 L 718.10 445.00" fill="none" group-id="3,16,24" id="路径-20" node-id="148" stroke="url(#linearGradient-20)" stroke-linecap="round" stroke-width="2" target-height="89" target-width="107.70001" target-x="686.8" target-y="356"></path></g><g node-id="457"><path d="M 696.20 464.40 L 692.90 462.10 L 689.90 460.70 L 687.00 459.80 L 684.20 459.60 L 681.50 459.90 L 678.80 460.80 L 676.00 462.30 L 673.10 464.50 L 670.10 467.60 L 667.00 471.60 L 660.90 483.40 L 659.10 486.00 L 657.10 488.30 L 655.50 489.60 L 651.50 491.30 L 659.80 491.80 L 666.90 491.70 L 672.90 491.10 L 678.00 490.00 L 682.20 488.50 L 685.80 486.70 L 688.70 484.70 L 691.10 482.30 L 693.10 479.50 L 694.60 476.50 L 695.60 472.90 L 696.10 468.90 L 696.20 464.40 Z" fill="url(#linearGradient4)" fill-rule="nonzero" group-id="3,16,25" id="路径-18" node-id="149" stroke="none" target-height="32.19998" target-width="44.700012" target-x="651.5" target-y="459.6"></path></g><g node-id="458"><path d="M 706.50 453.70 L 705.80 455.80 L 704.20 458.20 L 701.60 461.20 L 697.70 464.70 L 692.10 468.90 L 684.50 473.90 L 674.30 479.80" fill="none" group-id="3,16,26" id="路径-19" node-id="150" stroke="url(#linearGradient5)" stroke-linecap="round" stroke-width="2" target-height="26.099976" target-width="32.200012" target-x="674.3" target-y="453.7"></path></g><g node-id="459"><path d="M 362.20 714.00 L 359.70 711.00 L 357.20 708.70 L 354.60 707.20 L 352.00 706.20 L 349.30 705.70 L 346.40 705.80 L 343.40 706.50 L 340.00 707.80 L 336.30 709.90 L 332.10 713.00 L 323.00 722.60 L 320.60 724.70 L 318.00 726.30 L 316.10 727.10 L 311.80 727.60 L 319.70 730.40 L 326.50 732.20 L 332.50 733.30 L 337.60 733.60 L 342.10 733.40 L 346.00 732.70 L 349.40 731.50 L 352.40 729.80 L 355.00 727.80 L 357.30 725.20 L 359.30 722.10 L 360.90 718.40 L 362.20 714.00 Z" fill="url(#linearGradient-21)" fill-rule="nonzero" group-id="3,16,27" id="路径-18备份" node-id="151" stroke="none" target-height="27.899963" target-width="50.400024" target-x="311.8" target-y="705.7"></path></g><g node-id="460"><path d="M 375.10 706.60 L 373.80 708.40 L 371.60 710.40 L 368.30 712.50 L 363.50 714.80 L 357.00 717.30 L 348.30 720.00 L 336.90 722.80" fill="none" group-id="3,16,28" id="路径-19备份" node-id="152" stroke="url(#linearGradient-22)" stroke-linecap="round" stroke-width="2" target-height="16.200012" target-width="38.200012" target-x="336.9" target-y="706.6"></path></g><path d="M 386.40 665.40 L 376.00 673.00 L 366.40 679.30 L 357.50 684.50 L 349.30 688.80 L 341.80 692.10 L 334.90 694.60 L 328.50 696.30" fill="none" group-id="3,16,29" id="路径-22" node-id="153" stroke="url(#linearGradient-23)" stroke-linecap="round" stroke-width="2" target-height="30.899963" target-width="57.899994" target-x="328.5" target-y="665.4"></path></g></g><g node-id="436"><path d="M 483.90 766.60 L 482.80 763.00 L 481.20 759.80 L 479.10 757.00 L 476.40 754.50 L 473.20 752.40 L 461.60 747.50 L 458.70 745.20 L 458.20 744.30 L 458.30 743.50 L 458.90 742.50 L 460.60 741.50 L 466.30 741.00 L 468.70 741.30 L 471.10 742.10 L 473.70 743.60 L 475.30 744.90 L 478.90 749.40 L 482.20 755.60 L 483.90 760.10 L 484.30 762.30 L 483.90 766.60 Z" fill="url(#linearGradient-24)" fill-rule="nonzero" group-id="4" id="路径-43" node-id="155" stroke="none" target-height="25.599976" target-width="26.099976" target-x="458.2" target-y="741"></path><path d="M 484.30 767.80 L 481.50 758.00 L 478.60 749.70 L 475.80 742.60 L 473.10 736.70 L 470.30 731.90 L 466.30 725.80 L 465.30 723.80 L 464.70 721.60 L 464.40 717.50 L 465.50 714.10 L 466.40 712.90 L 467.70 712.10 L 470.70 712.00 L 472.30 712.40 L 475.50 714.40 L 478.20 717.90 L 480.10 721.50 L 482.20 727.00 L 484.10 733.40 L 486.00 742.30 L 487.10 751.50 L 487.20 758.50 L 486.80 762.10 L 486.00 765.30 L 485.30 766.80 L 484.30 767.80 Z" fill="url(#linearGradient-25)" fill-rule="nonzero" group-id="4" id="路径-44" node-id="156" stroke="none" target-height="55.799988" target-width="22.800018" target-x="464.4" target-y="712"></path><path d="M 485.40 763.70 L 486.40 759.00 L 486.90 753.60 L 486.80 747.30 L 486.10 740.10 L 484.60 731.80 L 479.60 716.20 L 478.90 712.60 L 478.80 709.60 L 479.10 707.70 L 479.70 706.20 L 480.70 704.90 L 481.90 704.00 L 483.80 703.30 L 486.30 703.00 L 488.30 703.50 L 490.40 704.70 L 491.60 705.90 L 493.90 709.90 L 494.80 712.40 L 496.00 720.20 L 496.10 730.30 L 495.70 737.30 L 494.80 742.70 L 491.50 755.60 L 488.90 763.70 L 486.80 764.10 L 485.40 763.70 Z" fill="url(#linearGradient-26)" fill-rule="nonzero" group-id="4" id="路径-45" node-id="157" stroke="none" target-height="61.099976" target-width="17.300018" target-x="478.8" target-y="703"></path><path d="M 488.00 766.90 L 487.90 758.40 L 488.30 750.90 L 489.10 744.10 L 490.30 738.20 L 491.80 732.90 L 493.60 728.20 L 495.70 724.00 L 498.10 720.40 L 501.90 716.00 L 503.70 714.90 L 505.60 714.20 L 507.70 714.00 L 509.00 714.20 L 511.30 715.70 L 512.00 716.90 L 512.50 718.60 L 512.80 721.20 L 511.10 727.50 L 509.40 731.60 L 506.60 737.10 L 501.20 745.10 L 497.30 750.10 L 493.70 756.00 L 491.40 761.60 L 490.20 766.00 L 489.50 766.60 L 488.00 766.90 Z" fill="url(#linearGradient-27)" fill-rule="nonzero" group-id="4" id="路径-46" node-id="158" stroke="none" target-height="52.900024" target-width="24.899994" target-x="487.9" target-y="714"></path><path d="M 440.00 769.90 L 452.30 767.10 L 454.50 766.20 L 458.20 763.40 L 460.70 762.10 L 463.80 760.90 L 467.10 760.10 L 470.60 760.00 L 472.90 760.30 L 475.00 761.20 L 477.10 762.50 L 478.20 761.50 L 479.90 760.70 L 481.70 760.20 L 483.80 760.30 L 486.30 761.40 L 487.50 762.50 L 488.30 760.30 L 489.70 758.40 L 493.70 755.20 L 498.10 753.40 L 500.10 753.00 L 503.60 753.00 L 509.10 753.70 L 512.10 755.00 L 514.00 756.20 L 515.70 757.80 L 517.40 760.00 L 518.50 762.50 L 519.50 765.70 L 520.00 769.90 L 440.00 769.90 Z" fill="url(#linearGradient-28)" fill-rule="nonzero" group-id="4" id="路径-47" node-id="159" stroke="none" target-height="16.900024" target-width="80" target-x="440" target-y="753"></path></g><g node-id="437"><path d="M 573.10 838.50 L 579.30 840.70 L 583.00 842.40 L 586.40 844.80 L 587.30 846.70 L 586.60 848.60 L 585.40 849.90 L 575.80 855.90 L 573.60 857.70 L 572.30 859.30 L 571.30 861.10 L 571.00 862.80 L 571.60 866.10 L 573.80 869.30 L 576.00 871.70 L 580.40 875.40 L 588.90 879.30 L 594.10 881.20 L 608.70 885.20 L 625.90 888.80 L 646.60 891.60 L 657.70 892.60 L 669.80 893.20 L 681.90 893.40 L 694.50 893.10 L 707.80 892.30 L 727.80 890.00 L 748.60 886.20 L 758.40 883.80 L 766.90 881.40 L 780.30 876.60 L 786.60 873.70 L 791.80 870.90 L 796.00 868.20 L 799.30 865.60 L 802.60 862.50 L 805.10 859.60 L 806.90 856.80 L 808.10 854.00 L 808.90 851.10 L 809.20 848.20 L 809.20 845.40 L 808.70 842.70 L 807.40 839.20 L 805.70 835.80 L 803.40 832.50 L 800.70 829.50 L 794.50 824.20 L 789.80 821.40 L 782.20 817.60 L 773.40 814.00 L 762.10 809.90 L 749.90 806.10 L 735.50 802.30 L 725.60 800.10 L 703.50 796.20 L 692.10 794.60 L 680.10 793.40 L 667.50 792.60 L 654.90 792.20 L 641.90 792.40 L 628.50 793.00 L 616.50 794.00 L 597.40 796.30 L 581.50 799.30 L 575.60 800.80 L 565.40 804.30 L 562.00 805.90 L 558.90 807.80 L 556.90 809.50 L 554.20 813.60 L 552.20 818.60 L 551.80 821.00 L 551.90 823.40 L 552.60 825.70 L 553.80 827.80 L 555.90 830.10 L 558.90 832.40 L 562.30 834.30 L 566.90 836.30 L 573.10 838.50 Z" fill="url(#linearGradient-29)" fill-opacity="0.4" fill-rule="nonzero" group-id="5" id="路径" node-id="160" stroke="none" target-height="101.20001" target-width="257.40002" target-x="551.8" target-y="792.2"></path></g><g node-id="438"><path d="M 685.70 647.00 L 688.50 647.40 L 693.70 649.30 L 698.20 652.40 L 700.20 654.40 L 703.10 658.80 L 703.00 658.10 L 704.40 659.30 L 705.40 662.70 L 705.50 665.70 L 707.10 665.90 L 708.70 667.80 L 709.60 671.30 L 709.50 673.20 L 708.90 675.00 L 707.80 676.50 L 705.40 677.70 L 703.60 678.00 L 702.50 680.20 L 698.70 685.70 L 696.50 688.40 L 694.00 690.60 L 694.00 700.20 L 675.00 700.50 L 675.10 689.20 L 673.00 687.20 L 671.20 684.70 L 669.30 681.40 L 667.80 678.00 L 668.20 678.00 L 664.40 677.50 L 662.20 675.80 L 661.10 673.40 L 660.90 671.30 L 661.20 669.30 L 661.90 667.60 L 662.90 666.30 L 664.60 665.70 L 665.50 665.90 L 666.10 661.30 L 667.10 658.30 L 668.50 655.50 L 670.40 652.90 L 672.50 650.90 L 674.80 649.30 L 677.40 648.00 L 680.10 647.20 L 682.80 646.90 L 685.70 647.00 Z M 703.50 661.00 L 704.00 663.30 Z M 703.10 658.80 L 703.50 661.00 L 703.10 658.80 Z" fill="#ebb0b0" fill-rule="nonzero" group-id="6" id="形状结合" node-id="162" stroke="none" target-height="53.599976" target-width="48.69995" target-x="660.9" target-y="646.9"></path><path d="M 705.70 667.60 L 708.00 664.50 L 709.00 662.30 L 710.20 658.80 L 710.90 654.90 L 711.10 650.90 L 710.70 646.90 L 710.10 644.30 L 708.00 639.70 L 706.40 637.70 L 704.60 636.10 L 701.00 633.80 L 699.10 633.10 L 694.00 632.60 L 689.30 633.40 L 684.70 630.40 L 682.80 629.60 L 680.20 629.00 L 677.00 629.10 L 672.70 630.10 L 668.70 631.60 L 667.00 632.50 L 664.10 635.10 L 662.00 637.60 L 660.00 640.60 L 658.30 644.10 L 656.90 648.00 L 656.00 652.30 L 655.80 655.30 L 656.50 660.00 L 657.80 663.20 L 663.30 672.40 L 664.80 671.10 L 666.10 669.40 L 670.10 661.70 L 672.90 658.80 L 676.00 656.30 L 679.30 654.10 L 682.90 652.30 L 688.00 651.70 L 691.80 651.60 L 694.20 651.90 L 696.30 652.60 L 698.20 653.70 L 699.90 655.10 L 701.60 657.30 L 703.30 660.40 L 705.70 667.60 Z" fill="#131322" fill-rule="nonzero" group-id="6" id="路径" node-id="163" stroke="none" target-height="43.400024" target-width="55.299988" target-x="655.8" target-y="629"></path><path d="M 675.50 692.50 L 682.00 696.70 L 685.40 697.60 L 686.70 697.40 L 688.20 696.70 L 693.60 692.50 L 702.70 693.80 L 708.00 695.10 L 713.90 697.10 L 719.80 699.50 L 726.10 702.50 L 732.20 706.10 L 738.20 710.30 L 737.90 730.70 L 737.40 739.30 L 736.00 752.90 L 733.00 769.20 L 727.60 791.60 L 718.50 807.80 L 709.80 821.40 L 707.10 824.40 L 702.80 826.30 L 698.80 827.70 L 695.10 828.60 L 687.30 829.30 L 677.30 828.80 L 670.50 828.00 L 667.50 826.40 L 662.70 822.80 L 652.80 814.40 L 650.20 812.00 L 648.50 809.30 L 640.30 791.70 L 636.50 781.40 L 633.90 771.00 L 632.60 741.40 L 631.90 711.90 L 634.40 708.60 L 637.00 705.90 L 639.70 703.60 L 645.60 700.00 L 653.30 697.10 L 675.50 692.50 Z" fill="url(#linearGradient-30)" fill-rule="nonzero" group-id="6" id="路径" node-id="164" stroke="none" target-height="136.79999" target-width="106.29999" target-x="631.9" target-y="692.5"></path><path d="M 672.00 703.10 L 695.10 703.10 L 696.70 703.40 L 697.90 704.30 L 698.80 705.50 L 699.10 707.10 L 699.10 744.90 L 698.80 746.50 L 697.90 747.80 L 696.70 748.60 L 695.10 748.90 L 672.00 748.90 L 670.40 748.60 L 669.20 747.80 L 668.30 746.50 L 668.00 744.90 L 668.00 707.10 L 668.30 705.50 L 669.20 704.30 L 670.40 703.40 L 672.00 703.10 Z" fill="url(#linearGradient-31)" fill-rule="nonzero" group-id="6" id="矩形" node-id="165" stroke="none" target-height="45.80005" target-width="31.099976" target-x="668" target-y="703.1"></path><g node-id="449"><path d="M 658.40 743.80 L 660.20 739.20 L 662.10 735.30 L 664.20 731.90 L 666.50 729.10 L 668.80 728.10 L 669.20 728.30 L 669.30 728.70 L 668.40 730.10 L 672.70 729.40 L 674.80 729.80 L 677.40 731.30 L 679.70 734.40 L 681.40 740.00 L 679.40 744.30 L 677.90 746.70 L 673.90 751.10 L 669.60 753.80 L 665.50 754.90 L 663.30 754.50 L 661.60 753.60 L 660.20 752.30 L 659.20 750.30 L 658.60 747.60 L 658.40 743.80 Z" fill="#efba9e" fill-rule="nonzero" group-id="6,17" id="路径-109" node-id="166" stroke="none" target-height="26.800049" target-width="23" target-x="658.4" target-y="728.1"></path></g><path d="M 628.70 712.30 L 631.40 709.40 L 634.00 707.30 L 636.30 706.00 L 638.50 705.30 L 640.70 705.10 L 642.80 705.40 L 645.00 706.20 L 647.30 707.70 L 649.70 709.80 L 650.70 711.20 L 651.70 713.40 L 652.60 716.60 L 653.50 721.70 L 654.10 728.50 L 654.30 735.60 L 653.90 752.10 L 652.60 769.70 L 649.70 794.20 L 647.50 796.50 L 643.50 799.40 L 641.60 800.20 L 638.80 800.80 L 636.20 800.80 L 633.60 800.20 L 631.20 799.10 L 629.00 797.70 L 627.00 795.80 L 625.20 793.70 L 622.80 788.70 L 620.60 778.10 L 619.10 768.30 L 618.40 759.20 L 618.30 750.90 L 618.80 743.10 L 619.80 736.00 L 621.30 729.40 L 623.30 723.30 L 625.80 717.60 L 628.70 712.30 Z" fill="url(#linearGradient-32)" fill-rule="nonzero" group-id="6" id="路径-2" node-id="167" stroke="none" target-height="95.70001" target-width="36" target-x="618.3" target-y="705.1"></path><path d="M 630.70 783.70 L 632.10 778.70 L 633.90 773.70 L 636.30 768.90 L 639.20 764.10 L 642.80 759.30 L 646.90 754.50 L 651.80 749.70 L 657.40 745.00 L 659.20 744.50 L 662.70 744.40 L 666.00 745.50 L 667.40 746.60 L 668.50 748.00 L 669.50 749.80 L 670.20 752.20 L 670.10 756.70 L 668.50 764.70 L 667.20 769.50 L 663.20 780.00 L 660.50 785.20 L 657.50 790.10 L 654.10 794.40 L 651.50 797.00 L 648.80 799.10 L 645.90 800.80 L 641.80 801.40 L 638.60 801.40 L 636.10 800.90 L 634.10 800.00 L 632.50 798.70 L 631.30 797.00 L 630.50 794.80 L 630.00 791.90 L 630.10 788.30 L 630.70 783.70 Z" fill="url(#linearGradient-33)" fill-rule="nonzero" group-id="6" id="路径-3" node-id="168" stroke="none" target-height="57" target-width="40.200012" target-x="630" target-y="744.4"></path><g node-id="450"><path d="M 710.10 743.80 L 708.40 739.20 L 706.40 735.30 L 704.30 731.90 L 702.10 729.10 L 699.80 728.10 L 699.30 728.30 L 699.30 728.70 L 700.20 730.10 L 695.80 729.40 L 693.80 729.80 L 691.20 731.30 L 688.90 734.40 L 687.20 740.00 L 689.10 744.30 L 690.60 746.70 L 694.70 751.10 L 699.00 753.80 L 703.00 754.90 L 705.30 754.50 L 707.00 753.60 L 708.30 752.30 L 709.30 750.30 L 710.00 747.60 L 710.10 743.80 Z" fill="#efba9e" fill-rule="nonzero" group-id="6,18" id="路径-109" node-id="169" stroke="none" target-height="26.800049" target-width="22.899963" target-x="687.2" target-y="728.1"></path></g><g node-id="451"><path d="M 739.90 712.30 L 737.10 709.40 L 734.60 707.30 L 732.20 706.00 L 730.00 705.30 L 727.90 705.10 L 725.70 705.40 L 723.50 706.20 L 721.30 707.70 L 718.90 709.80 L 717.80 711.20 L 716.80 713.40 L 715.90 716.60 L 715.10 721.70 L 714.50 728.50 L 714.30 735.60 L 714.70 752.10 L 715.90 769.70 L 718.90 794.20 L 721.00 796.50 L 725.10 799.40 L 727.00 800.20 L 729.80 800.80 L 732.40 800.80 L 734.90 800.20 L 737.30 799.10 L 739.50 797.70 L 741.60 795.80 L 743.30 793.70 L 745.80 788.70 L 748.00 778.10 L 749.40 768.30 L 750.20 759.20 L 750.30 750.90 L 749.80 743.10 L 748.80 736.00 L 747.30 729.40 L 745.30 723.30 L 742.80 717.60 L 739.90 712.30 Z" fill="url(#linearGradient-34)" fill-rule="nonzero" group-id="6,19" id="路径-2" node-id="170" stroke="none" target-height="95.70001" target-width="36" target-x="714.3" target-y="705.1"></path></g><g node-id="452"><path d="M 737.80 783.70 L 736.50 778.70 L 734.60 773.70 L 732.30 768.90 L 729.30 764.10 L 725.80 759.30 L 721.60 754.50 L 716.80 749.70 L 711.20 745.00 L 709.30 744.50 L 705.80 744.40 L 702.60 745.50 L 701.20 746.60 L 700.00 748.00 L 699.10 749.80 L 698.40 752.20 L 698.40 756.70 L 700.00 764.70 L 701.40 769.50 L 705.40 780.00 L 708.00 785.20 L 711.10 790.10 L 714.50 794.40 L 717.10 797.00 L 719.80 799.10 L 722.60 800.80 L 726.70 801.40 L 729.90 801.40 L 732.50 800.90 L 734.50 800.00 L 736.00 798.70 L 737.20 797.00 L 738.10 794.80 L 738.50 791.90 L 738.50 788.30 L 737.80 783.70 Z" fill="url(#linearGradient-35)" fill-rule="nonzero" group-id="6,20" id="路径-3" node-id="171" stroke="none" target-height="57" target-width="40.099976" target-x="698.4" target-y="744.4"></path></g><path d="M 739.20 797.70 L 743.80 796.40 L 747.10 795.80 L 750.50 795.70 L 754.30 796.20 L 756.70 796.90 L 759.10 798.00 L 761.40 799.70 L 763.30 801.70 L 765.00 804.50 L 766.60 808.10 L 767.40 811.60 L 767.60 814.40 L 767.30 816.80 L 765.70 821.10 L 764.40 822.70 L 762.20 824.80 L 759.90 826.30 L 757.50 827.50 L 753.90 828.70 L 740.20 831.20 L 734.20 850.20 L 685.80 841.30 L 637.30 850.20 L 631.30 831.20 L 615.90 828.20 L 611.70 826.40 L 609.40 824.80 L 607.20 822.70 L 605.00 819.10 L 604.30 816.80 L 604.00 814.40 L 604.30 811.60 L 605.10 808.20 L 606.60 804.50 L 608.30 801.70 L 610.30 799.70 L 612.60 798.00 L 614.90 796.90 L 617.30 796.20 L 621.10 795.70 L 624.50 795.90 L 627.80 796.40 L 685.70 812.00 L 739.20 797.70 Z" fill="url(#linearGradient-36)" fill-rule="nonzero" group-id="6" id="裤子" node-id="172" stroke="none" target-height="54.5" target-width="163.59998" target-x="604" target-y="795.7"></path><path d="M 632.70 836.00 L 626.80 836.40 L 613.10 836.20 L 610.50 836.30 L 606.50 837.30 L 605.80 837.90 L 604.90 839.50 L 604.10 843.30 L 604.30 848.30 L 604.70 850.40 L 606.20 853.40 L 607.00 854.20 L 608.60 854.80 L 610.20 854.70 L 629.90 850.40 L 636.90 848.50 L 632.70 836.00 Z M 738.80 836.00 L 744.70 836.40 L 758.50 836.20 L 761.10 836.30 L 765.10 837.30 L 765.90 838.00 L 766.70 839.50 L 767.50 843.30 L 767.40 848.30 L 766.90 850.50 L 765.40 853.50 L 764.70 854.30 L 763.00 854.90 L 761.40 854.80 L 741.60 850.50 L 734.50 848.60 L 738.80 836.00 Z" fill="#333333" fill-rule="nonzero" group-id="6" id="脚" node-id="173" stroke="none" target-height="18.900024" target-width="163.40002" target-x="604.1" target-y="836"></path></g></svg>