<?xml version="1.0" standalone="no"?><!DOCTYPE svg PUBLIC "-//W3C//DTD SVG 1.1//EN" "http://www.w3.org/Graphics/SVG/1.1/DTD/svg11.dtd"><svg height="1024" node-id="1" sillyvg="true" template-height="1024" template-width="1024" version="1.1" viewBox="0 0 1024 1024" width="1024" xmlns="http://www.w3.org/2000/svg" xmlns:xlink="http://www.w3.org/1999/xlink"><defs node-id="157"><linearGradient gradientUnits="objectBoundingBox" id="linearGradient1" node-id="159" spreadMethod="pad" x1="-0.1358235" x2="0.5" y1="0.5" y2="0.47203198"><stop offset="0" stop-color="#98d6fa"></stop><stop offset="1" stop-color="#47b0f1"></stop></linearGradient><linearGradient gradientUnits="objectBoundingBox" id="linearGradient-1" node-id="5" spreadMethod="pad" x1="-0.1358235" x2="0.5" y1="0.5" y2="0.47203198"><stop offset="0" stop-color="#98d6fa"></stop><stop offset="1" stop-color="#47b0f1"></stop></linearGradient><linearGradient gradientUnits="objectBoundingBox" id="linearGradient-2" node-id="8" spreadMethod="pad" x1="-0.0000000000000009337728" x2="1" y1="-0.031055901" y2="-0.031055901"><stop offset="0" stop-color="#fff5de"></stop><stop offset="1" stop-color="#fbd2ac"></stop></linearGradient><linearGradient gradientUnits="objectBoundingBox" id="linearGradient-3" node-id="11" spreadMethod="pad" x1="-0.1358235" x2="0.5" y1="0.5" y2="0.47628444"><stop offset="0" stop-color="#98d6fa"></stop><stop offset="1" stop-color="#47b0f1"></stop></linearGradient><linearGradient gradientUnits="objectBoundingBox" id="linearGradient2" node-id="184" spreadMethod="pad" x1="-0.1358235" x2="0.5" y1="0.5" y2="0.47629464"><stop offset="0" stop-color="#98d6fa"></stop><stop offset="1" stop-color="#47b0f1"></stop></linearGradient><linearGradient gradientUnits="objectBoundingBox" id="linearGradient-4" node-id="14" spreadMethod="pad" x1="-0.1358235" x2="0.5" y1="0.5" y2="0.47629464"><stop offset="0" stop-color="#98d6fa"></stop><stop offset="1" stop-color="#47b0f1"></stop></linearGradient><linearGradient gradientUnits="objectBoundingBox" id="linearGradient-5" node-id="17" spreadMethod="pad" x1="-0.1358235" x2="0.5" y1="0.5" y2="0.47629884"><stop offset="0" stop-color="#98d6fa"></stop><stop offset="1" stop-color="#47b0f1"></stop></linearGradient><linearGradient gradientUnits="objectBoundingBox" id="linearGradient-6" node-id="20" spreadMethod="pad" x1="-0.1358235" x2="0.5" y1="0.5" y2="0.4342302"><stop offset="0" stop-color="#98d6fa"></stop><stop offset="1" stop-color="#47b0f1"></stop></linearGradient><linearGradient gradientUnits="objectBoundingBox" id="linearGradient3" node-id="209" spreadMethod="pad" x1="0.43139893" x2="0.60336566" y1="-0.06451613" y2="0"><stop offset="0.031572677" stop-color="#afdef9"></stop><stop offset="1" stop-color="#7cc9f9"></stop></linearGradient><linearGradient gradientUnits="objectBoundingBox" id="linearGradient-8" node-id="26" spreadMethod="pad" x1="0.05920258" x2="0.5996637" y1="0.6085715" y2="0.37054223"><stop offset="0" stop-color="#98d6fa"></stop><stop offset="1" stop-color="#47b0f1"></stop></linearGradient><linearGradient gradientUnits="objectBoundingBox" id="linearGradient-9" node-id="29" spreadMethod="pad" x1="0.44492638" x2="0.58298296" y1="-0.06451613" y2="0"><stop offset="0.031572677" stop-color="#afdef9"></stop><stop offset="1" stop-color="#7cc9f9"></stop></linearGradient><linearGradient gradientUnits="objectBoundingBox" id="linearGradient-10" node-id="32" spreadMethod="pad" x1="0.28403884" x2="0.5" y1="0.8700848" y2="0.30481097"><stop offset="0" stop-color="#98d6fa"></stop><stop offset="1" stop-color="#47b0f1"></stop></linearGradient><linearGradient gradientUnits="objectBoundingBox" id="linearGradient-7" node-id="23" spreadMethod="pad" x1="0.43139893" x2="0.60336566" y1="-0.06451613" y2="0"><stop offset="0.031572677" stop-color="#afdef9"></stop><stop offset="1" stop-color="#7cc9f9"></stop></linearGradient><linearGradient gradientUnits="objectBoundingBox" id="linearGradient-11" node-id="35" spreadMethod="pad" x1="0.99999994" x2="0" y1="-0.11764705" y2="-0.11764705"><stop offset="0" stop-color="#f5dda7"></stop><stop offset="1" stop-color="#fa9a41"></stop></linearGradient><linearGradient gradientUnits="objectBoundingBox" id="linearGradient4" node-id="246" spreadMethod="pad" x1="0.11093361" x2="0.5" y1="0.8700848" y2="0.30481097"><stop offset="0" stop-color="#98d6fa"></stop><stop offset="1" stop-color="#47b0f1"></stop></linearGradient><linearGradient gradientUnits="objectBoundingBox" id="linearGradient-13" node-id="41" spreadMethod="pad" x1="0.07477601" x2="0.8532448" y1="0.17832185" y2="0.80980283"><stop offset="0" stop-color="#98d6fa"></stop><stop offset="1" stop-color="#47b0f1"></stop></linearGradient><linearGradient gradientUnits="objectBoundingBox" id="linearGradient-12" node-id="38" spreadMethod="pad" x1="0.11093361" x2="0.5" y1="0.8700848" y2="0.30481097"><stop offset="0" stop-color="#98d6fa"></stop><stop offset="1" stop-color="#47b0f1"></stop></linearGradient><linearGradient gradientUnits="objectBoundingBox" id="linearGradient-14" node-id="44" spreadMethod="pad" x1="0.13965732" x2="0.875197" y1="0.07491416" y2="1.0750235"><stop offset="0" stop-color="#ffb859"></stop><stop offset="1" stop-color="#f97b61"></stop></linearGradient><linearGradient gradientUnits="objectBoundingBox" id="linearGradient-15" node-id="47" spreadMethod="pad" x1="0.020751633" x2="0.5" y1="0.8700848" y2="0.30481097"><stop offset="0" stop-color="#98d6fa"></stop><stop offset="1" stop-color="#47b0f1"></stop></linearGradient><linearGradient gradientUnits="objectBoundingBox" id="linearGradient-16" node-id="50" spreadMethod="pad" x1="1" x2="0.005814659" y1="-0.029698754" y2="-0.029698754"><stop offset="0" stop-color="#f97b61"></stop><stop offset="1" stop-color="#ffb859"></stop></linearGradient><linearGradient gradientUnits="objectBoundingBox" id="linearGradient-17" node-id="53" spreadMethod="pad" x1="1" x2="0.005814659" y1="-0.029698754" y2="-0.029698754"><stop offset="0" stop-color="#f97b61"></stop><stop offset="1" stop-color="#ffb859"></stop></linearGradient><linearGradient gradientUnits="objectBoundingBox" id="linearGradient-18" node-id="56" spreadMethod="pad" x1="0" x2="0.9941853" y1="-0.029698754" y2="-0.029698754"><stop offset="0" stop-color="#ffb859"></stop><stop offset="1" stop-color="#f97b61"></stop></linearGradient><linearGradient gradientUnits="objectBoundingBox" id="linearGradient-19" node-id="59" spreadMethod="pad" x1="0" x2="0.9941853" y1="-0.029698754" y2="-0.029698754"><stop offset="0" stop-color="#ffb859"></stop><stop offset="1" stop-color="#f97b61"></stop></linearGradient><linearGradient gradientUnits="objectBoundingBox" id="linearGradient-20" node-id="62" spreadMethod="pad" x1="0.86275023" x2="-0.000000000000027057475" y1="-0.028050492" y2="-0.028050492"><stop offset="0" stop-color="#1d181c"></stop><stop offset="0.3" stop-color="#2c2422"></stop><stop offset="0.5" stop-color="#42352c"></stop><stop offset="0.7" stop-color="#57352c"></stop><stop offset="1" stop-color="#923629"></stop></linearGradient><linearGradient gradientUnits="objectBoundingBox" id="linearGradient5" node-id="313" spreadMethod="pad" x1="0.86275023" x2="-0.000000000000027057475" y1="-0.028050492" y2="-0.028050492"><stop offset="0" stop-color="#1d181c"></stop><stop offset="0.3" stop-color="#2c2422"></stop><stop offset="0.5" stop-color="#42352c"></stop><stop offset="0.7" stop-color="#57352c"></stop><stop offset="1" stop-color="#923629"></stop></linearGradient><linearGradient gradientUnits="objectBoundingBox" id="linearGradient-21" node-id="68" spreadMethod="pad" x1="0.13724977" x2="1" y1="-0.028050492" y2="-0.028050492"><stop offset="0" stop-color="#1d181c"></stop><stop offset="0.3" stop-color="#2c2422"></stop><stop offset="0.5" stop-color="#42352c"></stop><stop offset="0.7" stop-color="#57352c"></stop><stop offset="1" stop-color="#923629"></stop></linearGradient><linearGradient gradientUnits="objectBoundingBox" id="linearGradient-22" node-id="74" spreadMethod="pad" x1="0.8017669" x2="0.40161258" y1="0.7812446" y2="0.012035675"><stop offset="0" stop-color="#98d6fa"></stop><stop offset="1" stop-color="#47b0f1"></stop></linearGradient><linearGradient gradientUnits="objectBoundingBox" id="linearGradient-23" node-id="77" spreadMethod="pad" x1="0.1696366" x2="0.73110634" y1="0.77603304" y2="0.27310416"><stop offset="0" stop-color="#98d6fa"></stop><stop offset="1" stop-color="#47b0f1"></stop></linearGradient><linearGradient gradientUnits="objectBoundingBox" id="linearGradient-24" node-id="80" spreadMethod="pad" x1="0" x2="0.849776" y1="0.6687911" y2="0.36125568"><stop offset="0" stop-color="#98d6fa"></stop><stop offset="1" stop-color="#47b0f1"></stop></linearGradient><linearGradient gradientUnits="objectBoundingBox" id="linearGradient-25" node-id="83" spreadMethod="pad" x1="0" x2="0.849776" y1="0.6436173" y2="0.38194832"><stop offset="0" stop-color="#98d6fa"></stop><stop offset="1" stop-color="#47b0f1"></stop></linearGradient><linearGradient gradientUnits="objectBoundingBox" id="linearGradient-26" node-id="86" spreadMethod="pad" x1="0" x2="0.849776" y1="0.63935465" y2="0.38545215"><stop offset="0" stop-color="#98d6fa"></stop><stop offset="1" stop-color="#47b0f1"></stop></linearGradient><linearGradient gradientUnits="objectBoundingBox" id="linearGradient-27" node-id="89" spreadMethod="pad" x1="0.22355923" x2="0.5" y1="-0.089142084" y2="0.77381057"><stop offset="0" stop-color="#98d6fa"></stop><stop offset="1" stop-color="#47b0f1"></stop></linearGradient><linearGradient gradientUnits="objectBoundingBox" id="linearGradient-28" node-id="92" spreadMethod="pad" x1="0.45362788" x2="0.5" y1="-0.11452465" y2="0.7856074"><stop offset="0" stop-color="#98d6fa"></stop><stop offset="1" stop-color="#47b0f1"></stop></linearGradient><linearGradient gradientUnits="objectBoundingBox" id="linearGradient-29" node-id="95" spreadMethod="pad" x1="0.47746408" x2="0.5" y1="-0.11452465" y2="0.7856074"><stop offset="0" stop-color="#98d6fa"></stop><stop offset="1" stop-color="#47b0f1"></stop></linearGradient><linearGradient gradientUnits="objectBoundingBox" id="linearGradient-30" node-id="98" spreadMethod="pad" x1="0.4389308" x2="0.5" y1="-0.11452465" y2="0.7856074"><stop offset="0" stop-color="#98d6fa"></stop><stop offset="1" stop-color="#47b0f1"></stop></linearGradient><linearGradient gradientUnits="objectBoundingBox" id="linearGradient-31" node-id="101" spreadMethod="pad" x1="0" x2="1.1322753" y1="0.77603304" y2="0.77603304"><stop offset="0" stop-color="#98d6fa"></stop><stop offset="1" stop-color="#47b0f1"></stop></linearGradient></defs><g node-id="397"><path d="M 0.00 0.00 L 1024.00 0.00 L 1024.00 1024.00 L 0.00 1024.00 Z" fill="#ffffff" fill-opacity="0" fill-rule="evenodd" group-id="1" id="矩形" node-id="105" stroke="none" target-height="1024" target-width="1024" target-x="0" target-y="0"></path></g><g node-id="398"><g node-id="404"><path d="M 76.80 581.80 L 72.00 559.40 L 67.80 535.60 L 64.20 506.80 L 62.30 480.30 L 62.10 458.20 L 62.40 447.00 L 63.20 435.80 L 64.40 424.60 L 66.10 413.40 L 68.20 402.50 L 70.90 391.90 L 73.40 384.00 L 76.20 376.30 L 79.30 368.90 L 82.80 361.80 L 86.70 354.80 L 91.00 348.20 L 95.70 341.90 L 100.90 335.90 L 106.50 330.30 L 112.60 325.10 L 119.20 320.30 L 126.40 315.90 L 132.30 312.90 L 138.70 310.10 L 145.40 307.60 L 152.70 305.40 L 160.40 303.50 L 178.10 300.10 L 194.90 297.30 L 210.70 295.10 L 226.70 293.30 L 256.00 290.80 L 277.20 289.70 L 333.40 287.30 L 356.00 285.50 L 366.40 284.30 L 376.70 282.70 L 386.60 280.50 L 396.00 278.00 L 402.90 275.70 L 409.70 273.00 L 416.30 270.00 L 422.80 266.50 L 428.90 262.70 L 435.10 258.40 L 441.10 253.50 L 464.00 232.30 L 478.40 220.40 L 490.80 211.80 L 496.90 208.20 L 502.50 205.40 L 507.70 203.20 L 513.00 201.40 L 518.20 200.10 L 528.20 198.70 L 538.70 198.50 L 546.80 199.00 L 575.60 201.60 L 582.90 201.90 L 590.30 201.50 L 597.80 200.60 L 605.20 199.20 L 612.70 197.40 L 620.20 195.20 L 634.70 189.80 L 652.30 181.60 L 662.10 176.40 L 680.00 165.80 L 708.70 147.00 L 721.40 140.80 L 730.30 137.20 L 743.60 132.80 L 759.10 128.80 L 776.30 126.10 L 785.10 125.30 L 794.30 125.00 L 803.80 125.30 L 818.10 126.90 L 832.70 130.20 L 839.90 132.40 L 847.00 135.20 L 854.30 138.60 L 861.50 142.50 L 868.40 146.90 L 875.30 151.90 L 882.20 157.70 L 889.00 164.20 L 894.10 169.60 L 904.10 182.10 L 913.90 197.00 L 922.50 213.10 L 926.70 222.20 L 930.80 232.10 L 938.20 253.20 L 944.60 276.50 L 947.60 289.50 L 950.40 303.50 L 951.90 326.90 L 954.30 374.00 L 955.10 412.60 L 954.60 442.10 L 953.90 456.60 L 952.70 470.50 L 949.70 493.80 L 948.00 503.30 L 943.80 520.80 L 941.10 529.40 L 938.10 537.40 L 934.90 544.90 L 931.30 551.80 L 928.10 557.30 L 924.60 562.30 L 921.00 567.00 L 917.10 571.30 L 907.60 580.30 L 903.20 585.10 L 899.80 589.70 L 897.10 594.00 L 894.80 598.80 L 893.20 603.30 L 892.20 607.60 L 891.80 611.70 L 891.90 616.00 L 892.40 620.00 L 893.40 624.00 L 894.90 627.80 L 898.90 635.00 L 904.30 641.70 L 908.50 645.70 L 913.10 649.40 L 918.10 652.80 L 923.30 655.80 L 928.70 658.40 L 934.10 660.60 L 939.70 662.40 L 945.10 663.80 L 953.50 665.30 L 956.00 666.20 L 958.00 667.40 L 959.50 668.90 L 960.70 670.60 L 961.60 673.10 L 962.00 675.90 L 961.80 679.30 L 961.00 683.40 L 957.90 691.30 L 955.50 695.90 L 952.30 701.00 L 947.80 707.30 L 942.30 714.10 L 935.80 721.30 L 928.80 728.20 L 921.00 735.20 L 912.30 742.40 L 903.30 749.20 L 893.50 755.80 L 883.00 762.30 L 875.00 766.80 L 858.00 775.10 L 843.70 781.10 L 836.30 783.70 L 826.40 786.80 L 810.80 791.10 L 790.70 796.10 L 769.10 800.90 L 743.80 806.00 L 717.30 810.90 L 687.90 815.70 L 657.50 820.10 L 624.90 824.20 L 602.90 826.60 L 556.90 830.60 L 509.90 833.40 L 485.90 834.20 L 461.90 834.60 L 438.00 834.50 L 414.00 834.00 L 390.10 832.90 L 366.50 831.30 L 343.20 829.10 L 325.70 827.10 L 308.60 824.70 L 291.90 821.90 L 275.50 818.80 L 259.10 815.20 L 243.20 811.20 L 227.90 806.80 L 213.00 802.00 L 204.40 798.00 L 196.20 793.60 L 188.40 788.90 L 181.00 783.70 L 173.80 778.20 L 167.00 772.40 L 160.50 766.30 L 154.40 759.90 L 146.60 751.00 L 139.40 741.80 L 132.80 732.30 L 126.60 722.50 L 120.80 712.60 L 115.60 702.60 L 110.70 692.40 L 102.20 672.50 L 96.80 657.60 L 92.20 643.60 L 88.20 629.90 L 82.20 606.10 L 76.80 581.80 Z" fill="#47b0f1" fill-opacity="0.05" fill-rule="nonzero" group-id="2,8" id="路径-58" node-id="107" stroke="none" target-height="709.6" target-width="899.9" target-x="62.1" target-y="125"></path></g><g node-id="405"><path d="M 158.00 329.00 L 161.10 330.60 L 162.30 331.70 L 163.80 334.70 L 164.00 336.50 L 163.70 339.50 L 163.00 341.30 L 161.80 342.80 L 160.30 344.00 L 158.50 344.70 L 156.50 345.00 L 77.50 345.00 L 75.50 344.70 L 73.70 344.00 L 72.20 342.80 L 71.00 341.30 L 70.30 339.50 L 70.00 337.50 L 70.30 334.50 L 71.00 332.70 L 72.20 331.20 L 73.70 330.00 L 75.50 329.30 L 77.50 329.00 L 109.00 329.00 L 110.90 328.70 L 112.50 328.10 L 113.90 327.00 L 115.00 325.70 L 115.70 324.10 L 116.00 322.00 L 115.70 320.10 L 115.10 318.50 L 114.00 317.10 L 112.70 316.00 L 111.10 315.30 L 109.20 315.00 L 106.00 315.00 L 104.30 314.30 L 101.70 312.30 L 100.20 309.30 L 100.00 306.50 L 100.30 304.50 L 101.00 302.70 L 102.20 301.20 L 103.70 300.00 L 105.50 299.30 L 107.50 299.00 L 186.50 299.00 L 188.50 299.30 L 190.30 300.00 L 191.80 301.20 L 193.00 302.70 L 193.70 304.50 L 194.00 307.50 L 193.70 309.50 L 193.00 311.30 L 191.80 312.80 L 190.30 314.00 L 188.50 314.70 L 186.50 315.00 L 155.00 315.00 L 153.10 315.30 L 151.50 315.90 L 150.10 317.00 L 149.00 318.30 L 148.30 319.90 L 148.00 321.80 L 148.30 323.90 L 148.90 325.50 L 150.00 326.90 L 151.30 328.00 L 152.90 328.70 L 154.80 329.00 L 158.00 329.00 Z" fill="url(#linearGradient1)" fill-opacity="0.1" fill-rule="nonzero" group-id="2,9" id="形状结合" node-id="108" stroke="none" target-height="46" target-width="124" target-x="70" target-y="299"></path></g><g node-id="406"><path d="M 858.00 159.00 L 861.10 160.60 L 862.30 161.70 L 863.80 164.70 L 864.00 166.50 L 863.70 169.50 L 863.00 171.30 L 861.80 172.80 L 860.30 174.00 L 858.50 174.70 L 856.50 175.00 L 777.50 175.00 L 775.50 174.70 L 773.70 174.00 L 772.20 172.80 L 771.00 171.30 L 770.30 169.50 L 770.00 167.50 L 770.30 164.50 L 771.00 162.70 L 772.20 161.20 L 773.70 160.00 L 775.50 159.30 L 777.50 159.00 L 809.00 159.00 L 810.90 158.70 L 812.50 158.10 L 813.90 157.00 L 815.00 155.70 L 815.70 154.10 L 816.00 152.00 L 815.70 150.10 L 815.10 148.50 L 814.00 147.10 L 812.70 146.00 L 811.10 145.30 L 809.20 145.00 L 806.00 145.00 L 804.30 144.30 L 801.70 142.30 L 800.20 139.30 L 800.00 136.50 L 800.30 134.50 L 801.00 132.70 L 802.20 131.20 L 803.70 130.00 L 805.50 129.30 L 807.50 129.00 L 886.50 129.00 L 888.50 129.30 L 890.30 130.00 L 891.80 131.20 L 893.00 132.70 L 893.70 134.50 L 894.00 137.50 L 893.70 139.50 L 893.00 141.30 L 891.80 142.80 L 890.30 144.00 L 888.50 144.70 L 886.50 145.00 L 855.00 145.00 L 853.10 145.30 L 851.50 145.90 L 850.10 147.00 L 849.00 148.30 L 848.30 149.90 L 848.00 151.80 L 848.30 153.90 L 848.90 155.50 L 850.00 156.90 L 851.30 158.00 L 852.90 158.70 L 858.00 159.00 Z" fill="url(#linearGradient-1)" fill-opacity="0.1" fill-rule="nonzero" group-id="2,10" id="形状结合" node-id="109" stroke="none" target-height="46" target-width="124" target-x="770" target-y="129"></path></g><path d="M 514.50 712.00 L 547.40 712.20 L 579.20 712.90 L 610.10 714.00 L 640.90 715.50 L 670.40 717.30 L 698.60 719.50 L 726.80 722.20 L 753.30 725.20 L 778.10 728.40 L 802.90 732.10 L 825.60 736.00 L 846.30 740.00 L 859.80 740.30 L 872.70 741.10 L 885.10 742.20 L 897.50 743.80 L 909.10 745.70 L 920.00 747.90 L 930.80 750.50 L 940.60 753.40 L 949.40 756.50 L 958.20 760.10 L 965.70 763.80 L 972.20 767.60 L 976.90 770.80 L 980.80 774.10 L 984.10 777.30 L 986.80 780.60 L 989.10 784.20 L 990.70 787.80 L 991.70 791.40 L 992.00 795.00 L 991.70 798.50 L 990.80 802.00 L 989.30 805.50 L 987.10 809.00 L 984.60 812.20 L 981.50 815.30 L 977.70 818.50 L 973.30 821.70 L 967.20 825.40 L 960.00 829.10 L 951.80 832.60 L 943.30 835.70 L 934.00 838.50 L 923.80 841.20 L 913.50 843.50 L 902.40 845.50 L 890.60 847.10 L 863.20 854.20 L 847.50 857.70 L 848.00 864.00 L 847.70 868.40 L 846.90 872.70 L 845.60 877.00 L 843.80 881.30 L 841.30 885.60 L 835.40 893.40 L 827.30 901.40 L 822.40 905.30 L 816.20 909.80 L 809.20 914.20 L 801.40 918.50 L 792.60 922.80 L 784.00 926.60 L 764.50 933.90 L 742.80 940.40 L 719.50 946.00 L 706.80 948.40 L 690.00 951.20 L 672.40 953.60 L 653.80 955.50 L 635.20 956.90 L 615.90 957.70 L 596.00 958.00 L 565.00 957.30 L 550.20 956.50 L 521.10 953.80 L 507.10 952.00 L 480.70 947.60 L 467.60 944.90 L 443.60 938.90 L 421.50 931.80 L 411.30 928.00 L 401.90 924.00 L 393.30 919.90 L 384.60 915.20 L 377.00 910.50 L 370.20 905.80 L 364.40 901.10 L 359.80 896.80 L 355.80 892.60 L 352.50 888.30 L 349.80 884.10 L 347.60 879.90 L 319.60 877.50 L 293.20 874.90 L 268.30 872.00 L 243.40 868.70 L 220.40 865.10 L 199.20 861.40 L 178.00 857.20 L 159.00 852.80 L 142.00 848.40 L 129.10 844.60 L 117.70 840.90 L 107.70 837.10 L 98.80 833.50 L 91.40 830.00 L 85.10 826.50 L 79.80 823.20 L 71.50 816.90 L 68.40 813.70 L 66.00 810.60 L 64.20 807.70 L 63.00 804.80 L 62.30 801.90 L 62.00 799.00 L 62.20 796.20 L 63.00 793.30 L 64.10 790.50 L 65.90 787.60 L 68.20 784.60 L 71.20 781.50 L 74.80 778.40 L 84.30 771.90 L 90.40 768.60 L 106.10 761.50 L 115.80 757.80 L 126.80 754.10 L 139.20 750.40 L 155.60 746.00 L 174.00 741.70 L 194.50 737.50 L 215.00 733.80 L 237.30 730.20 L 261.40 726.90 L 285.50 723.90 L 311.10 721.30 L 338.30 718.80 L 393.70 715.10 L 423.30 713.80 L 483.20 712.20 L 514.50 712.00 Z" fill="url(#linearGradient-2)" fill-rule="nonzero" group-id="2" id="形状结合" node-id="110" stroke="none" target-height="246" target-width="930" target-x="62" target-y="712"></path><g node-id="407"><path d="M 686.60 226.60 L 685.00 222.90 L 683.00 219.70 L 680.60 216.80 L 677.80 214.20 L 674.80 212.00 L 671.40 210.10 L 664.30 207.50 L 660.50 206.70 L 656.70 206.30 L 649.20 206.60 L 655.10 203.70 L 658.40 202.60 L 661.90 201.80 L 668.80 201.10 L 672.30 201.30 L 675.60 201.80 L 678.70 202.80 L 681.70 204.20 L 684.30 206.10 L 686.60 208.50 L 688.90 206.20 L 691.60 204.30 L 694.50 202.90 L 697.60 202.00 L 700.90 201.40 L 704.40 201.20 L 711.40 201.90 L 714.80 202.70 L 721.20 205.10 L 724.00 206.70 L 716.60 206.40 L 709.00 207.60 L 701.80 210.30 L 698.50 212.20 L 695.40 214.40 L 692.60 216.90 L 690.20 219.80 L 688.20 223.00 L 686.60 226.60 Z" fill="url(#linearGradient-3)" fill-rule="nonzero" group-id="2,11" id="路径" node-id="112" stroke="none" target-height="25.5" target-width="74.79999" target-x="649.2" target-y="201.1"></path><path d="M 770.00 214.10 L 768.90 211.50 L 765.90 207.30 L 763.90 205.50 L 761.00 203.50 L 757.90 201.90 L 754.50 200.80 L 751.00 200.20 L 747.50 200.00 L 744.10 200.20 L 747.10 198.70 L 750.50 197.40 L 754.10 196.70 L 757.70 196.40 L 760.10 196.50 L 764.60 197.60 L 768.40 199.90 L 770.00 201.60 L 771.60 199.90 L 775.50 197.70 L 780.00 196.60 L 782.40 196.50 L 786.00 196.70 L 789.60 197.50 L 793.00 198.70 L 796.00 200.30 L 792.50 200.00 L 789.10 200.30 L 785.50 200.90 L 782.10 202.10 L 779.00 203.60 L 776.10 205.60 L 773.60 208.00 L 771.60 210.80 L 770.00 214.10 Z" fill="url(#linearGradient2)" fill-rule="nonzero" group-id="2,11" id="路径" node-id="113" stroke="none" target-height="17.700012" target-width="51.900024" target-x="744.1" target-y="196.4"></path><path d="M 735.20 179.60 L 734.10 177.00 L 731.10 172.80 L 729.10 171.00 L 726.30 169.00 L 723.10 167.50 L 719.70 166.30 L 716.20 165.70 L 712.80 165.50 L 709.30 165.80 L 712.30 164.20 L 715.70 162.90 L 719.30 162.20 L 722.90 161.90 L 725.30 162.00 L 729.80 163.10 L 733.60 165.40 L 735.20 167.10 L 736.90 165.50 L 740.70 163.20 L 745.20 162.10 L 747.60 162.00 L 751.20 162.30 L 754.80 163.00 L 758.20 164.20 L 761.20 165.80 L 757.70 165.60 L 754.30 165.80 L 750.70 166.50 L 747.40 167.60 L 744.20 169.10 L 741.30 171.10 L 738.80 173.50 L 736.80 176.40 L 735.20 179.60 Z" fill="url(#linearGradient-4)" fill-rule="nonzero" group-id="2,11" id="路径" node-id="114" stroke="none" target-height="17.700012" target-width="51.900024" target-x="709.3" target-y="161.9"></path><path d="M 840.70 220.10 L 839.60 217.70 L 838.20 215.80 L 834.50 212.70 L 830.00 210.90 L 827.50 210.40 L 822.70 210.40 L 825.60 209.00 L 828.80 208.10 L 831.10 207.80 L 835.40 208.10 L 837.40 208.80 L 839.20 209.90 L 840.70 211.40 L 842.30 209.90 L 844.00 208.90 L 848.20 207.90 L 852.60 208.20 L 855.90 209.10 L 858.70 210.50 L 853.90 210.50 L 851.50 210.90 L 847.00 212.80 L 843.20 215.80 L 841.80 217.80 L 840.70 220.10 Z" fill="url(#linearGradient-5)" fill-rule="nonzero" group-id="2,11" id="路径" node-id="115" stroke="none" target-height="12.300003" target-width="36" target-x="822.7" target-y="207.8"></path></g><g node-id="408"><g node-id="416"><path d="M 124.20 356.40 L 116.30 353.20 L 109.60 351.00 L 104.00 349.60 L 99.20 349.10 L 95.20 349.10 L 91.90 349.60 L 89.00 350.60 L 86.60 352.00 L 84.60 353.80 L 82.90 356.10 L 81.50 358.90 L 80.50 362.40 L 79.80 366.70 L 79.70 371.80 L 80.10 378.00 L 81.40 382.80 L 82.80 386.60 L 84.50 389.60 L 86.30 392.00 L 88.30 393.70 L 90.40 395.00 L 96.40 402.60 L 101.10 409.40 L 104.70 415.30 L 107.30 420.50 L 109.10 425.10 L 110.20 429.10 L 111.40 436.80 L 112.60 441.10 L 115.40 446.30 L 117.20 448.70 L 119.40 450.80 L 121.90 452.70 L 124.90 454.20 L 128.00 455.30 L 131.60 456.00 L 135.80 456.30 L 140.00 456.00 L 144.80 455.10 L 154.90 452.40 L 159.00 451.90 L 162.70 452.00 L 166.20 452.70 L 169.40 454.00 L 172.50 455.80 L 175.50 458.30 L 178.30 461.50 L 181.00 465.60 L 183.60 470.60 L 186.00 476.80 L 188.20 484.30 L 192.60 489.50 L 197.30 494.30 L 202.50 498.70 L 208.10 502.70 L 214.20 506.20 L 220.80 509.30 L 227.90 512.10 L 235.60 514.30 L 244.00 516.10 L 253.00 517.50 L 262.80 518.30 L 273.40 518.50 L 284.90 518.20 L 297.40 517.10 L 306.50 515.90 L 313.80 514.30 L 319.60 512.60 L 324.10 510.60 L 327.60 508.50 L 330.10 506.40 L 332.00 504.10 L 333.20 501.70 L 333.90 499.10 L 334.00 496.20 L 333.50 493.10 L 332.30 489.50 L 330.30 485.50 L 327.20 480.80 L 322.80 475.40 L 316.90 469.30 L 309.30 462.30 L 299.50 454.30 L 287.40 445.20 L 274.80 440.40 L 264.80 437.00 L 248.50 432.80 L 246.50 431.70 L 244.60 430.20 L 243.00 428.10 L 241.50 425.50 L 240.30 422.10 L 239.30 417.80 L 238.70 412.50 L 238.30 402.70 L 237.60 399.80 L 236.30 396.90 L 234.60 394.30 L 232.30 391.80 L 229.40 389.30 L 225.70 387.00 L 221.10 384.90 L 210.10 380.80 L 205.70 378.60 L 202.30 376.30 L 199.80 373.90 L 197.90 371.40 L 196.70 368.80 L 196.00 366.00 L 195.90 363.00 L 196.40 359.70 L 193.30 355.60 L 190.20 352.40 L 187.20 350.00 L 184.20 348.30 L 181.20 347.20 L 178.10 346.70 L 174.90 346.70 L 171.60 347.30 L 168.00 348.60 L 164.20 350.50 L 155.40 356.60 L 151.00 359.00 L 147.00 360.70 L 143.20 361.70 L 139.70 362.20 L 136.40 362.10 L 133.20 361.50 L 130.20 360.30 L 127.10 358.70 L 124.20 356.40 Z" fill="url(#linearGradient-6)" fill-rule="nonzero" group-id="2,12,20" id="路径-61" node-id="117" stroke="none" target-height="171.79999" target-width="254.3" target-x="79.7" target-y="346.7"></path></g><g node-id="417"><path d="M 122.60 371.50 L 170.90 403.70 L 168.80 393.80 L 166.60 385.40 L 164.40 378.30 L 161.10 369.70 L 165.50 379.40 L 168.90 388.20 L 171.70 397.30 L 172.60 401.60 L 172.90 405.00 L 213.10 431.90 L 213.60 411.40 L 213.20 404.50 L 212.50 399.30 L 211.70 395.50 L 213.30 400.10 L 214.00 403.60 L 215.70 417.50 L 216.10 426.60 L 215.60 433.60 L 252.70 458.30 L 252.30 457.90 L 253.10 449.80 L 253.20 442.80 L 252.50 436.40 L 253.70 440.00 L 254.50 446.40 L 254.90 453.70 L 254.80 459.80 L 285.40 480.10 L 281.50 484.00 L 250.00 461.70 L 244.00 464.40 L 235.90 466.40 L 231.40 466.90 L 224.10 466.90 L 230.70 466.10 L 236.20 464.90 L 240.60 463.40 L 244.20 461.70 L 247.00 459.80 L 249.50 461.30 L 160.70 398.50 L 161.30 399.10 L 154.50 399.90 L 148.10 400.10 L 142.10 399.90 L 136.40 399.30 L 131.00 398.20 L 125.80 396.80 L 127.00 396.50 L 135.80 398.00 L 140.40 398.50 L 146.10 398.80 L 154.30 398.10 L 158.90 397.20 L 122.60 371.50 Z M 164.00 448.40 L 168.00 448.20 L 172.50 447.40 L 177.50 445.90 L 183.20 443.60 L 189.70 440.20 L 196.90 435.80 L 205.10 430.10 L 207.40 432.30 L 201.90 436.30 L 196.50 439.70 L 191.30 442.40 L 185.90 444.80 L 180.90 446.50 L 176.20 447.70 L 171.50 448.40 L 167.40 448.60 L 164.00 448.40 Z" fill="url(#linearGradient3)" fill-rule="nonzero" group-id="2,12,21" id="形状结合" node-id="118" stroke="none" target-height="114.29999" target-width="162.79999" target-x="122.6" target-y="369.7"></path></g><path d="M 159.60 287.30 L 152.10 282.50 L 145.80 279.00 L 140.40 276.60 L 135.80 275.10 L 131.90 274.30 L 128.70 274.20 L 125.90 274.50 L 123.50 275.30 L 121.40 276.50 L 119.50 278.20 L 118.00 280.50 L 116.60 283.30 L 115.60 286.90 L 114.90 291.40 L 114.60 296.90 L 114.80 303.80 L 120.10 325.00 L 122.00 334.30 L 123.20 342.40 L 123.50 347.70 L 123.50 352.80 L 122.70 360.50 L 122.90 367.50 L 124.40 375.10 L 127.40 383.20 L 129.50 387.20 L 132.20 391.20 L 135.20 394.90 L 138.90 398.60 L 143.20 402.10 L 150.40 406.60 L 154.80 408.60 L 165.70 412.90 L 170.50 415.30 L 174.30 417.70 L 177.10 420.10 L 179.20 422.60 L 180.70 425.00 L 181.60 427.40 L 182.00 430.00 L 181.80 432.70 L 181.10 435.60 L 179.80 438.80 L 177.70 442.30 L 177.20 445.70 L 177.20 449.00 L 177.80 452.10 L 179.00 455.20 L 180.70 458.20 L 183.00 461.20 L 186.20 464.20 L 190.20 467.20 L 195.20 470.30 L 201.30 473.30 L 208.80 476.30 L 217.80 479.30 L 228.50 482.20 L 241.10 485.00 L 255.90 487.70 L 268.10 489.40 L 278.20 490.50 L 286.30 490.90 L 297.90 490.60 L 305.60 489.40 L 309.20 488.20 L 311.90 486.80 L 314.00 485.30 L 315.60 483.70 L 316.80 481.80 L 317.60 479.70 L 318.10 477.40 L 318.10 474.80 L 317.60 471.40 L 316.60 467.50 L 315.00 463.30 L 311.90 456.90 L 308.00 449.90 L 299.00 435.50 L 293.50 429.60 L 289.50 424.60 L 287.20 421.20 L 284.00 415.30 L 282.50 410.80 L 281.60 406.60 L 281.10 402.30 L 281.20 394.70 L 282.80 383.80 L 282.90 380.00 L 282.60 376.20 L 281.10 371.40 L 279.70 369.00 L 277.90 366.80 L 275.60 364.70 L 272.40 362.60 L 269.00 360.80 L 264.70 359.20 L 255.70 356.50 L 252.50 355.00 L 249.60 353.00 L 247.00 350.50 L 244.60 347.50 L 242.40 344.00 L 240.50 339.70 L 238.90 334.60 L 237.60 328.70 L 236.60 321.70 L 236.20 313.60 L 235.40 310.60 L 234.10 308.00 L 232.50 305.90 L 230.40 304.10 L 227.80 302.60 L 224.50 301.50 L 220.60 300.80 L 215.70 300.50 L 209.80 300.90 L 202.70 301.90 L 194.20 303.80 L 190.60 304.20 L 187.10 304.20 L 183.50 303.60 L 179.80 302.50 L 176.10 300.90 L 172.20 298.60 L 168.20 295.60 L 164.00 291.90 L 159.60 287.30 Z" fill="url(#linearGradient-8)" fill-rule="nonzero" group-id="2,12" id="路径-65" node-id="119" stroke="none" target-height="216.69998" target-width="203.5" target-x="114.6" target-y="274.2"></path><g node-id="418"><path d="M 144.90 304.70 L 180.40 349.80 L 182.10 344.90 L 183.30 340.20 L 183.90 335.50 L 184.10 330.80 L 183.70 326.10 L 182.70 321.00 L 185.50 330.00 L 186.10 333.60 L 186.20 337.40 L 185.70 341.90 L 185.00 344.80 L 182.10 352.00 L 212.10 390.20 L 214.90 385.70 L 217.10 381.00 L 218.90 375.80 L 220.20 370.00 L 221.00 363.60 L 221.30 356.50 L 222.00 362.20 L 221.90 366.40 L 221.50 371.60 L 220.50 376.90 L 219.10 382.50 L 217.70 386.10 L 214.10 392.70 L 240.80 426.60 L 243.00 422.50 L 245.50 416.20 L 246.30 412.50 L 246.60 408.40 L 247.10 414.60 L 246.80 418.00 L 245.30 424.10 L 242.70 429.10 L 282.00 479.00 L 275.80 479.00 L 237.80 428.40 L 229.10 431.60 L 220.20 433.20 L 215.90 433.40 L 212.00 433.10 L 208.90 432.40 L 204.00 430.70 L 208.20 431.50 L 212.40 431.80 L 216.80 431.60 L 221.20 430.90 L 225.90 429.80 L 230.70 428.00 L 235.70 425.70 L 206.90 387.20 L 207.40 388.10 L 200.10 390.40 L 193.00 392.10 L 185.90 393.20 L 179.40 393.80 L 173.10 393.90 L 167.70 393.40 L 164.30 392.80 L 159.00 390.90 L 162.30 391.90 L 166.10 392.50 L 170.60 392.70 L 175.80 392.50 L 181.80 391.80 L 188.70 390.40 L 196.80 388.30 L 206.00 385.30 L 205.50 385.50 L 173.40 342.60 L 173.60 343.10 L 168.20 343.20 L 163.20 342.70 L 158.60 341.80 L 154.30 340.30 L 150.30 338.40 L 146.60 336.00 L 143.00 333.10 L 139.70 329.70 L 140.20 329.60 L 141.50 330.40 L 148.00 334.90 L 151.50 336.70 L 155.40 338.30 L 163.70 340.30 L 171.90 340.60 L 144.90 304.70 Z" fill="url(#linearGradient-9)" fill-rule="nonzero" group-id="2,12,22" id="形状结合" node-id="120" stroke="none" target-height="174.29999" target-width="142.3" target-x="139.7" target-y="304.7"></path></g><path d="M 269.20 288.80 L 272.80 284.30 L 276.00 281.10 L 278.90 279.00 L 281.60 277.70 L 284.20 277.10 L 286.60 277.10 L 289.00 277.70 L 291.50 279.00 L 294.00 281.10 L 296.70 284.10 L 299.60 288.30 L 302.60 294.00 L 303.70 299.30 L 305.70 315.20 L 307.40 320.00 L 308.80 322.10 L 310.60 324.10 L 313.10 326.20 L 315.90 327.90 L 319.60 329.70 L 328.50 333.10 L 331.70 334.90 L 334.20 336.80 L 336.10 338.90 L 337.50 341.10 L 338.40 343.60 L 338.80 346.20 L 338.80 349.20 L 338.10 352.50 L 336.80 356.30 L 334.80 360.70 L 331.80 365.70 L 330.40 369.50 L 329.80 372.70 L 329.80 375.50 L 330.40 377.90 L 331.50 380.10 L 333.10 382.00 L 335.30 383.70 L 338.40 385.30 L 345.10 387.50 L 347.10 388.80 L 348.60 390.30 L 349.60 392.10 L 350.20 394.30 L 350.30 396.90 L 349.80 400.20 L 348.50 404.30 L 346.30 409.30 L 342.90 415.40 L 338.10 422.80 L 335.90 428.50 L 334.70 433.10 L 334.30 436.80 L 334.50 439.90 L 335.30 442.30 L 336.40 444.30 L 340.50 448.00 L 344.90 453.10 L 348.10 458.90 L 349.30 462.20 L 350.30 465.90 L 350.90 470.20 L 351.00 474.50 L 350.60 479.30 L 349.60 484.90 L 348.10 490.30 L 345.70 496.40 L 342.40 503.40 L 340.30 506.90 L 335.70 512.40 L 333.30 514.50 L 329.80 516.80 L 326.10 518.40 L 322.40 519.40 L 318.50 519.90 L 314.50 519.90 L 310.50 519.40 L 306.60 518.50 L 298.90 515.70 L 293.40 512.90 L 288.40 509.60 L 283.90 505.90 L 280.30 502.30 L 278.20 499.60 L 275.60 495.00 L 274.60 491.70 L 273.90 488.30 L 273.70 484.80 L 274.00 479.40 L 277.20 458.30 L 277.40 453.70 L 277.20 450.80 L 276.60 448.30 L 275.60 446.00 L 272.50 442.60 L 270.20 440.90 L 257.20 433.40 L 249.80 428.20 L 244.90 422.90 L 243.00 419.90 L 241.60 416.50 L 240.60 412.60 L 240.30 409.70 L 241.00 402.70 L 242.00 398.50 L 249.60 388.10 L 253.00 383.00 L 254.70 378.50 L 255.00 373.20 L 253.80 366.80 L 252.30 362.90 L 247.40 353.00 L 240.90 341.70 L 240.50 340.10 L 240.50 338.40 L 241.20 336.40 L 244.40 331.00 L 250.20 322.10 L 253.50 318.30 L 257.00 313.30 L 260.80 306.90 L 264.90 298.80 L 269.20 288.80 Z" fill="url(#linearGradient-10)" fill-rule="nonzero" group-id="2,12" id="路径-96" node-id="121" stroke="none" target-height="242.80002" target-width="110.7" target-x="240.3" target-y="277.1"></path><path d="M 286.10 318.50 L 297.50 375.40 L 303.00 366.90 L 307.40 359.40 L 310.80 352.80 L 314.60 344.50 L 310.80 354.40 L 307.00 363.00 L 302.50 371.40 L 300.10 375.10 L 297.90 377.80 L 307.40 425.20 L 322.20 411.00 L 326.80 405.90 L 330.00 401.80 L 332.10 398.50 L 330.00 402.80 L 328.00 405.80 L 319.40 416.80 L 313.20 423.60 L 308.00 428.20 L 316.70 471.80 L 316.70 471.30 L 322.90 466.10 L 328.00 461.30 L 332.10 456.30 L 330.30 459.60 L 326.40 464.70 L 321.50 470.20 L 317.20 474.40 L 324.40 510.40 L 318.90 510.40 L 312.40 472.30 L 306.20 470.00 L 299.10 465.70 L 295.60 462.90 L 290.40 457.80 L 295.70 461.80 L 300.30 464.80 L 304.50 466.90 L 308.30 468.20 L 311.70 468.90 L 312.30 471.80 L 294.00 364.50 L 293.90 365.40 L 288.60 361.10 L 283.90 356.80 L 279.80 352.40 L 276.20 347.90 L 273.10 343.30 L 270.50 338.60 L 271.50 339.20 L 276.70 346.60 L 279.60 350.20 L 283.50 354.40 L 289.70 359.70 L 293.60 362.30 L 286.10 318.50 Z M 261.00 402.10 L 263.90 404.80 L 267.70 407.40 L 272.30 409.90 L 278.00 412.30 L 284.90 414.50 L 293.20 416.50 L 303.00 418.30 L 303.00 421.40 L 296.30 420.40 L 290.10 418.90 L 284.50 417.20 L 279.00 415.00 L 274.20 412.70 L 270.10 410.30 L 266.30 407.50 L 263.30 404.70 L 261.00 402.10 Z" fill="url(#linearGradient-7)" fill-rule="nonzero" group-id="2,12" id="形状结合" node-id="122" stroke="none" target-height="191.9" target-width="71.100006" target-x="261" target-y="318.5"></path></g></g><g node-id="399"><path d="M 413.10 808.50 L 419.30 810.70 L 423.00 812.40 L 426.40 814.80 L 427.30 816.70 L 427.10 817.70 L 426.60 818.60 L 425.40 819.90 L 415.80 825.90 L 413.60 827.70 L 412.30 829.30 L 411.30 831.10 L 411.00 832.80 L 411.10 834.40 L 411.60 836.10 L 413.80 839.30 L 416.00 841.70 L 420.40 845.40 L 428.90 849.30 L 434.10 851.20 L 448.70 855.20 L 465.90 858.80 L 486.60 861.60 L 497.70 862.60 L 509.80 863.20 L 521.90 863.40 L 534.50 863.10 L 547.80 862.30 L 567.80 860.00 L 588.60 856.20 L 598.40 853.80 L 606.90 851.40 L 620.30 846.60 L 626.60 843.70 L 631.80 840.90 L 636.00 838.20 L 639.30 835.60 L 642.60 832.50 L 645.10 829.60 L 646.90 826.80 L 648.10 824.00 L 648.90 821.10 L 649.20 818.20 L 649.20 815.40 L 648.70 812.70 L 647.40 809.20 L 645.70 805.80 L 643.40 802.50 L 640.70 799.50 L 634.50 794.20 L 629.80 791.40 L 622.20 787.60 L 613.40 784.00 L 602.10 779.90 L 589.90 776.10 L 575.50 772.30 L 565.60 770.10 L 543.50 766.20 L 520.10 763.40 L 507.50 762.60 L 494.90 762.20 L 481.90 762.40 L 468.50 763.00 L 456.50 764.00 L 437.40 766.30 L 421.50 769.30 L 415.60 770.80 L 405.40 774.30 L 402.00 775.90 L 398.90 777.80 L 396.90 779.50 L 394.20 783.60 L 392.20 788.60 L 391.80 791.00 L 391.90 793.40 L 392.60 795.70 L 393.80 797.80 L 395.90 800.10 L 398.90 802.40 L 402.30 804.30 L 406.90 806.30 L 413.10 808.50 Z" fill="url(#linearGradient-11)" fill-opacity="0.4" fill-rule="nonzero" group-id="3" id="路径" node-id="123" stroke="none" target-height="101.20001" target-width="257.40002" target-x="391.8" target-y="762.2"></path></g><g node-id="400"><path d="M 240.10 794.30 L 240.10 728.80 L 261.90 728.80 L 261.90 695.00 L 240.10 695.00 L 240.10 532.60 L 204.20 532.60 L 204.20 695.00 L 151.20 694.80 L 148.60 694.20 L 146.30 693.30 L 144.40 692.10 L 142.10 689.80 L 140.60 687.50 L 139.70 685.10 L 139.40 682.50 L 140.30 674.40 L 161.90 532.60 L 126.40 532.60 L 102.40 686.60 L 101.90 693.50 L 102.10 698.10 L 102.70 702.20 L 103.60 705.80 L 104.80 709.00 L 106.30 711.80 L 109.30 716.00 L 112.40 719.50 L 115.70 722.30 L 119.20 724.70 L 122.80 726.40 L 126.70 727.70 L 130.90 728.50 L 135.30 728.80 L 204.20 728.80 L 204.20 794.30 L 240.10 794.30 Z" fill="url(#linearGradient4)" fill-rule="nonzero" group-id="4" id="4" node-id="125" stroke="none" target-height="261.7" target-width="160" target-x="101.9" target-y="532.6"></path><path d="M 511.90 293.60 L 523.30 293.90 L 534.50 294.70 L 545.50 295.90 L 556.30 297.70 L 566.90 299.90 L 577.50 302.70 L 587.80 305.90 L 597.90 309.50 L 607.80 313.50 L 617.40 318.00 L 626.90 322.90 L 636.10 328.20 L 645.00 333.90 L 653.60 339.90 L 662.00 346.30 L 670.10 353.10 L 677.80 360.20 L 685.20 367.60 L 692.30 375.40 L 699.10 383.50 L 705.60 391.90 L 711.60 400.50 L 717.30 409.40 L 722.60 418.60 L 727.50 428.10 L 731.90 437.70 L 736.00 447.60 L 739.60 457.70 L 742.80 468.00 L 745.50 478.60 L 747.80 489.20 L 749.50 500.00 L 750.80 511.00 L 751.60 522.20 L 751.90 533.60 L 751.60 545.00 L 750.80 556.20 L 749.50 567.20 L 747.80 578.00 L 745.50 588.60 L 742.80 599.20 L 739.60 609.50 L 736.00 619.60 L 731.90 629.50 L 727.50 639.10 L 722.60 648.60 L 717.30 657.80 L 711.60 666.70 L 705.60 675.30 L 699.10 683.70 L 692.30 691.80 L 685.20 699.60 L 677.80 707.00 L 670.10 714.10 L 662.00 720.90 L 653.60 727.30 L 645.00 733.30 L 636.10 739.00 L 626.90 744.30 L 617.40 749.20 L 607.80 753.70 L 597.90 757.70 L 587.80 761.30 L 577.50 764.50 L 566.90 767.30 L 556.30 769.50 L 545.50 771.30 L 534.50 772.50 L 523.30 773.30 L 511.90 773.60 L 500.50 773.30 L 489.30 772.50 L 478.30 771.30 L 467.50 769.50 L 456.80 767.30 L 446.30 764.50 L 435.90 761.30 L 425.80 757.70 L 416.00 753.70 L 406.30 749.20 L 396.80 744.30 L 387.70 739.00 L 378.80 733.30 L 370.10 727.30 L 361.80 720.90 L 353.70 714.10 L 345.90 707.00 L 338.50 699.60 L 331.40 691.80 L 324.60 683.70 L 318.20 675.30 L 312.10 666.70 L 306.50 657.80 L 301.20 648.60 L 296.30 639.10 L 291.80 629.50 L 287.70 619.60 L 284.10 609.50 L 281.00 599.20 L 278.20 588.60 L 276.00 578.00 L 274.20 567.20 L 272.90 556.20 L 272.10 545.00 L 271.90 533.60 L 272.10 522.20 L 272.90 511.00 L 274.20 500.00 L 276.00 489.20 L 278.20 478.60 L 281.00 468.00 L 284.10 457.70 L 287.70 447.60 L 291.80 437.70 L 296.30 428.10 L 301.20 418.60 L 306.50 409.40 L 312.10 400.50 L 318.20 391.90 L 324.60 383.50 L 331.40 375.40 L 338.50 367.60 L 345.90 360.20 L 353.70 353.10 L 361.80 346.30 L 370.10 339.90 L 378.80 333.90 L 387.70 328.20 L 396.80 322.90 L 406.30 318.00 L 416.00 313.50 L 425.80 309.50 L 435.90 305.90 L 446.30 302.70 L 456.80 299.90 L 467.50 297.70 L 478.30 295.90 L 489.30 294.70 L 500.50 293.90 L 511.90 293.60 Z M 511.90 373.60 L 503.00 373.90 L 494.30 374.60 L 485.80 375.70 L 477.50 377.30 L 469.30 379.30 L 461.20 381.80 L 453.40 384.60 L 445.70 387.90 L 438.30 391.50 L 431.10 395.40 L 424.10 399.80 L 417.30 404.50 L 410.90 409.50 L 404.70 414.80 L 398.70 420.50 L 393.10 426.40 L 387.80 432.60 L 382.80 439.10 L 378.10 445.80 L 373.70 452.80 L 369.70 460.10 L 366.10 467.50 L 362.90 475.10 L 360.00 483.00 L 357.60 491.10 L 355.60 499.20 L 354.00 507.50 L 352.80 516.00 L 352.10 524.70 L 351.90 533.60 L 352.10 542.50 L 352.80 551.20 L 354.00 559.70 L 355.60 568.00 L 357.60 576.10 L 360.00 584.20 L 362.90 592.10 L 366.10 599.70 L 369.70 607.10 L 373.70 614.40 L 378.10 621.40 L 382.80 628.10 L 387.80 634.60 L 393.10 640.80 L 398.70 646.70 L 404.70 652.40 L 410.90 657.70 L 417.30 662.70 L 424.10 667.40 L 431.10 671.80 L 438.30 675.70 L 445.70 679.30 L 453.40 682.60 L 461.20 685.40 L 469.30 687.90 L 477.50 689.90 L 485.80 691.50 L 494.30 692.60 L 503.00 693.30 L 511.90 693.60 L 520.70 693.30 L 529.40 692.60 L 537.90 691.50 L 546.20 689.90 L 554.40 687.90 L 562.50 685.40 L 570.40 682.60 L 578.00 679.30 L 585.40 675.70 L 592.60 671.80 L 599.60 667.40 L 606.40 662.70 L 612.80 657.70 L 619.10 652.40 L 625.00 646.70 L 630.70 640.80 L 636.00 634.60 L 641.00 628.10 L 645.70 621.40 L 650.00 614.40 L 654.00 607.10 L 657.60 599.70 L 660.80 592.10 L 663.70 584.20 L 666.10 576.10 L 668.20 568.00 L 669.80 559.70 L 670.90 551.20 L 671.60 542.50 L 671.90 533.60 L 671.60 524.70 L 670.90 516.00 L 669.80 507.50 L 668.20 499.20 L 666.10 491.10 L 663.70 483.00 L 660.80 475.10 L 657.60 467.50 L 654.00 460.10 L 650.00 452.80 L 645.70 445.80 L 641.00 439.10 L 636.00 432.60 L 630.70 426.40 L 625.00 420.50 L 619.10 414.80 L 612.80 409.50 L 606.40 404.50 L 599.60 399.80 L 592.60 395.40 L 585.40 391.50 L 578.00 387.90 L 570.40 384.60 L 562.50 381.80 L 554.40 379.30 L 546.20 377.30 L 537.90 375.70 L 529.40 374.60 L 520.70 373.90 L 511.90 373.60 Z" fill="url(#linearGradient-13)" fill-rule="nonzero" group-id="4" id="椭圆形" node-id="126" stroke="none" target-height="479.99997" target-width="480.00003" target-x="271.9" target-y="293.6"></path><path d="M 900.10 794.30 L 900.10 728.80 L 921.90 728.80 L 921.90 695.00 L 900.10 695.00 L 900.10 532.60 L 864.20 532.60 L 864.20 695.00 L 811.20 694.80 L 808.60 694.20 L 806.30 693.30 L 804.40 692.10 L 802.10 689.80 L 800.60 687.50 L 799.70 685.10 L 799.40 682.50 L 800.30 674.40 L 821.90 532.60 L 786.40 532.60 L 762.40 686.60 L 761.90 693.50 L 762.10 698.10 L 762.70 702.20 L 763.60 705.80 L 764.80 709.00 L 766.30 711.80 L 769.30 716.00 L 772.40 719.50 L 775.70 722.30 L 779.20 724.70 L 782.80 726.40 L 786.70 727.70 L 790.90 728.50 L 795.30 728.80 L 864.20 728.80 L 864.20 794.30 L 900.10 794.30 Z" fill="url(#linearGradient-12)" fill-rule="nonzero" group-id="4" id="4" node-id="127" stroke="none" target-height="261.7" target-width="160" target-x="761.9" target-y="532.6"></path></g><g node-id="401"><path d="M 515.10 464.00 L 518.50 464.50 L 521.70 465.50 L 524.80 466.80 L 527.70 468.60 L 530.40 470.70 L 532.80 473.10 L 534.70 475.60 L 536.40 478.50 L 536.20 477.50 L 537.10 478.00 L 537.90 479.00 L 539.10 483.30 L 539.30 486.90 L 541.30 487.20 L 542.20 487.90 L 543.20 489.40 L 544.00 491.50 L 544.30 493.70 L 544.20 496.00 L 543.00 498.80 L 542.00 500.00 L 540.80 500.90 L 539.10 501.60 L 536.90 501.90 L 535.60 504.60 L 529.20 513.50 L 525.20 517.30 L 525.20 529.10 L 502.00 529.40 L 502.10 515.60 L 498.80 512.10 L 497.40 510.00 L 495.10 506.10 L 493.20 501.90 L 493.60 501.90 L 491.00 501.80 L 489.00 501.30 L 487.60 500.40 L 486.40 499.20 L 485.00 496.20 L 484.80 493.80 L 485.20 491.30 L 486.00 489.10 L 487.20 487.60 L 488.20 487.00 L 489.20 486.80 L 490.40 487.10 L 490.40 485.30 L 491.10 481.40 L 492.30 477.80 L 494.10 474.40 L 496.40 471.30 L 499.00 468.80 L 501.80 466.80 L 504.90 465.30 L 508.20 464.30 L 511.60 463.90 L 515.10 464.00 Z M 536.90 481.10 L 537.40 484.00 Z M 536.40 478.50 L 536.90 481.10 L 536.40 478.50 Z" fill="#ebb0b0" fill-rule="nonzero" group-id="5" id="形状结合" node-id="129" stroke="none" target-height="65.50003" target-width="59.5" target-x="484.8" target-y="463.9"></path><path d="M 539.50 489.20 L 542.40 485.40 L 543.60 482.70 L 545.00 478.40 L 545.80 473.60 L 546.10 470.40 L 545.60 463.80 L 544.90 460.70 L 543.80 457.80 L 542.30 455.10 L 540.40 452.70 L 538.10 450.70 L 533.10 447.60 L 528.70 446.60 L 525.20 446.50 L 519.50 447.40 L 513.80 443.70 L 511.50 442.70 L 508.30 442.00 L 504.40 442.20 L 501.90 442.60 L 494.30 445.20 L 492.30 446.30 L 488.70 449.50 L 486.10 452.60 L 483.70 456.10 L 481.50 460.50 L 479.40 466.90 L 478.80 470.50 L 478.60 474.50 L 478.90 477.80 L 479.70 480.90 L 482.40 486.60 L 487.60 495.10 L 489.50 493.50 L 491.10 491.40 L 496.10 482.00 L 499.40 478.40 L 503.20 475.30 L 507.30 472.70 L 511.60 470.50 L 520.20 469.60 L 523.80 469.70 L 526.80 470.30 L 528.60 471.10 L 530.40 472.10 L 533.50 475.30 L 536.60 480.30 L 539.50 489.20 Z" fill="#131322" fill-rule="nonzero" group-id="5" id="路径" node-id="130" stroke="none" target-height="53.100006" target-width="67.49997" target-x="478.6" target-y="442"></path><path d="M 502.60 519.60 L 510.50 524.70 L 512.60 525.50 L 514.70 525.80 L 516.30 525.60 L 518.10 524.70 L 524.80 519.60 L 529.70 520.10 L 535.90 521.20 L 542.30 522.80 L 549.50 525.20 L 556.80 528.10 L 564.40 531.90 L 574.40 537.90 L 579.30 541.40 L 578.90 566.30 L 578.30 576.80 L 576.60 593.50 L 575.60 600.40 L 572.90 613.40 L 566.30 640.80 L 555.20 660.50 L 549.50 669.80 L 544.50 677.20 L 542.40 679.80 L 541.30 680.80 L 537.30 682.60 L 530.10 685.10 L 524.70 686.30 L 519.40 686.80 L 514.10 686.80 L 496.50 685.30 L 492.90 683.30 L 487.00 678.90 L 474.90 668.60 L 471.60 665.70 L 469.60 662.30 L 459.50 640.90 L 457.40 635.60 L 454.90 628.30 L 452.60 619.80 L 451.80 615.60 L 451.40 612.10 L 450.20 579.40 L 449.30 543.30 L 452.40 539.30 L 455.60 535.90 L 458.90 533.20 L 466.10 528.70 L 469.80 527.10 L 475.50 525.20 L 481.20 523.80 L 502.60 519.60 Z" fill="url(#linearGradient-14)" fill-rule="nonzero" group-id="5" id="路径" node-id="131" stroke="none" target-height="167.20001" target-width="130" target-x="449.3" target-y="519.6"></path><path d="M 497.50 532.60 L 527.50 532.60 L 529.00 532.90 L 530.30 533.80 L 531.10 535.00 L 531.50 536.60 L 531.50 584.60 L 531.10 586.20 L 530.30 587.40 L 529.00 588.30 L 527.50 588.60 L 497.50 588.60 L 495.90 588.30 L 494.60 587.40 L 493.80 586.20 L 493.50 584.60 L 493.50 536.60 L 493.80 535.00 L 494.60 533.80 L 495.90 532.90 L 497.50 532.60 Z" fill="url(#linearGradient-15)" fill-rule="nonzero" group-id="5" id="矩形" node-id="132" stroke="none" target-height="56" target-width="38" target-x="493.5" target-y="532.6"></path><g node-id="409"><path d="M 481.70 582.40 L 483.90 576.70 L 486.30 571.90 L 488.80 567.80 L 491.60 564.40 L 494.40 563.20 L 495.00 563.40 L 495.00 563.90 L 493.90 565.60 L 496.20 565.00 L 499.70 564.80 L 501.70 565.20 L 504.90 567.00 L 507.30 570.10 L 508.20 572.00 L 509.80 577.70 L 507.40 583.00 L 505.60 585.80 L 503.30 588.70 L 500.60 591.20 L 497.60 593.40 L 495.40 594.50 L 490.40 595.80 L 488.00 595.50 L 486.10 594.70 L 484.60 593.50 L 483.40 591.80 L 482.40 589.50 L 481.90 586.40 L 481.70 582.40 Z" fill="#efba9e" fill-rule="nonzero" group-id="5,13" id="路径-109" node-id="133" stroke="none" target-height="32.599976" target-width="28.099976" target-x="481.7" target-y="563.2"></path></g><path d="M 445.40 543.90 L 448.70 540.20 L 451.80 537.70 L 454.70 536.10 L 457.40 535.20 L 460.10 535.00 L 462.70 535.40 L 465.30 536.40 L 468.10 538.20 L 471.00 540.80 L 472.30 542.50 L 473.60 545.20 L 474.70 549.10 L 475.70 555.40 L 476.40 563.60 L 476.70 572.30 L 476.20 592.50 L 474.60 614.00 L 471.00 643.90 L 468.40 646.70 L 465.90 648.80 L 463.50 650.30 L 461.10 651.30 L 458.60 651.90 L 453.70 651.80 L 451.40 651.20 L 448.50 650.00 L 445.80 648.20 L 443.30 645.90 L 441.20 643.30 L 439.50 640.40 L 438.20 637.20 L 435.70 625.40 L 434.00 614.40 L 433.00 604.10 L 432.60 594.60 L 432.90 585.70 L 433.70 577.50 L 435.10 569.80 L 437.00 562.60 L 439.30 556.00 L 442.10 549.70 L 445.40 543.90 Z" fill="url(#linearGradient-16)" fill-rule="nonzero" group-id="5" id="路径-2" node-id="134" stroke="none" target-height="116.900024" target-width="44.100006" target-x="432.6" target-y="535"></path><path d="M 447.90 631.10 L 449.50 624.90 L 451.80 618.90 L 454.70 613.00 L 458.30 607.10 L 462.60 601.20 L 467.70 595.40 L 473.60 589.60 L 480.50 583.80 L 482.70 583.10 L 487.00 583.00 L 489.10 583.50 L 491.00 584.40 L 492.70 585.80 L 494.10 587.50 L 495.20 589.70 L 496.10 592.50 L 496.30 594.30 L 496.10 598.10 L 494.10 607.90 L 492.40 613.70 L 490.20 620.20 L 487.50 626.60 L 484.30 632.90 L 479.20 640.70 L 476.40 644.20 L 473.30 647.30 L 470.00 649.90 L 466.40 652.00 L 461.90 652.70 L 458.20 652.80 L 455.20 652.30 L 452.80 651.40 L 450.90 650.20 L 449.40 648.50 L 448.20 646.40 L 447.40 643.80 L 447.00 640.40 L 447.10 636.30 L 447.90 631.10 Z" fill="url(#linearGradient-17)" fill-rule="nonzero" group-id="5" id="路径-3" node-id="135" stroke="none" target-height="69.79999" target-width="49.299988" target-x="447" target-y="583"></path><g node-id="410"><path d="M 544.90 582.40 L 542.80 576.70 L 540.40 571.90 L 537.80 567.80 L 535.10 564.40 L 532.30 563.20 L 531.70 563.40 L 531.70 563.90 L 532.80 565.60 L 530.50 565.00 L 526.90 564.80 L 525.00 565.20 L 521.80 567.00 L 519.40 570.10 L 518.50 572.00 L 516.90 577.70 L 519.30 583.00 L 521.10 585.80 L 523.40 588.70 L 526.00 591.20 L 529.10 593.40 L 531.30 594.50 L 536.30 595.80 L 538.60 595.50 L 540.50 594.70 L 542.10 593.50 L 543.30 591.80 L 544.20 589.50 L 544.80 586.40 L 544.90 582.40 Z" fill="#efba9e" fill-rule="nonzero" group-id="5,14" id="路径-109" node-id="136" stroke="none" target-height="32.599976" target-width="28" target-x="516.9" target-y="563.2"></path></g><g node-id="411"><path d="M 581.30 543.90 L 577.90 540.20 L 574.80 537.70 L 572.00 536.10 L 569.20 535.20 L 566.60 535.00 L 564.00 535.40 L 561.30 536.40 L 558.60 538.20 L 555.60 540.80 L 554.30 542.50 L 553.10 545.20 L 552.00 549.10 L 551.00 555.40 L 550.30 563.60 L 550.00 572.30 L 550.50 592.50 L 552.00 614.00 L 555.60 643.90 L 558.30 646.70 L 560.80 648.80 L 563.20 650.30 L 565.50 651.30 L 568.10 651.90 L 572.90 651.80 L 575.30 651.20 L 578.20 650.00 L 580.90 648.20 L 583.40 645.90 L 585.50 643.30 L 587.20 640.40 L 588.50 637.20 L 591.00 625.40 L 592.70 614.40 L 593.70 604.10 L 594.00 594.60 L 593.80 585.70 L 592.90 577.50 L 591.60 569.80 L 589.70 562.60 L 587.40 556.00 L 584.60 549.70 L 581.30 543.90 Z" fill="url(#linearGradient-18)" fill-rule="nonzero" group-id="5,15" id="路径-2" node-id="137" stroke="none" target-height="116.900024" target-width="44" target-x="550" target-y="535"></path></g><g node-id="412"><path d="M 578.80 631.10 L 577.20 624.90 L 574.90 618.90 L 572.00 613.00 L 568.40 607.10 L 564.10 601.20 L 559.00 595.40 L 553.10 589.60 L 546.20 583.80 L 544.00 583.10 L 539.70 583.00 L 537.60 583.50 L 535.70 584.40 L 534.00 585.80 L 532.60 587.50 L 531.40 589.70 L 530.60 592.50 L 530.40 594.30 L 530.60 598.10 L 532.60 607.90 L 534.20 613.70 L 536.50 620.20 L 539.20 626.60 L 542.40 632.90 L 547.40 640.70 L 550.30 644.20 L 553.40 647.30 L 556.70 649.90 L 560.20 652.00 L 564.80 652.70 L 568.50 652.80 L 571.50 652.30 L 573.90 651.40 L 575.80 650.20 L 577.30 648.50 L 578.50 646.40 L 579.30 643.80 L 579.70 640.40 L 579.60 636.30 L 578.80 631.10 Z" fill="url(#linearGradient-19)" fill-rule="nonzero" group-id="5,16" id="路径-3" node-id="138" stroke="none" target-height="69.79999" target-width="49.299988" target-x="530.4" target-y="583"></path></g><path d="M 434.40 707.70 L 431.60 697.10 L 429.70 688.00 L 428.70 680.40 L 428.30 674.10 L 428.40 668.80 L 429.10 664.40 L 430.10 660.90 L 431.40 658.00 L 433.10 655.70 L 435.00 653.80 L 437.30 652.40 L 439.90 651.40 L 442.90 650.80 L 446.50 650.60 L 500.60 679.70 L 504.50 681.40 L 508.30 682.50 L 511.90 683.00 L 515.40 683.00 L 518.90 682.40 L 522.30 681.30 L 525.80 679.60 L 529.30 677.30 L 537.10 671.30 L 545.10 665.90 L 553.30 661.20 L 561.70 657.10 L 570.20 653.60 L 579.00 650.60 L 583.30 651.30 L 586.80 652.30 L 589.70 653.70 L 592.00 655.40 L 593.90 657.50 L 595.40 659.90 L 596.50 662.80 L 597.10 666.20 L 597.30 670.30 L 596.80 675.10 L 595.70 680.70 L 593.70 687.40 L 590.70 695.30 L 586.50 704.50 L 581.00 715.20 L 555.50 714.70 L 511.20 714.60 L 440.30 715.20 L 438.60 714.20 L 437.00 712.70 L 435.60 710.60 L 434.40 707.70 Z" fill="url(#linearGradient-20)" fill-rule="nonzero" group-id="5" id="路径-4" node-id="139" stroke="none" target-height="64.60004" target-width="169" target-x="428.3" target-y="650.6"></path><g node-id="413"><path d="M 477.80 796.00 L 485.70 795.20 L 488.50 795.90 L 489.80 797.10 L 491.20 799.00 L 492.90 803.80 L 493.10 805.50 L 492.70 808.30 L 485.90 823.10 L 482.10 830.20 L 477.10 837.40 L 473.60 840.60 L 472.00 841.20 L 470.30 841.10 L 468.90 840.40 L 467.80 839.20 L 467.00 837.50 L 466.40 835.40 L 466.20 830.00 L 467.50 823.40 L 475.20 801.30 L 476.10 798.90 L 477.80 796.00 Z" fill="#333333" fill-rule="nonzero" group-id="5,17" id="路径" node-id="140" stroke="none" target-height="46" target-width="26.899994" target-x="466.2" target-y="795.2"></path></g><g node-id="414"><path d="M 544.30 796.00 L 536.30 795.20 L 533.50 795.90 L 532.20 797.10 L 530.90 799.00 L 529.20 803.80 L 529.00 805.50 L 529.40 808.30 L 536.20 823.10 L 540.00 830.20 L 544.90 837.40 L 548.50 840.60 L 550.10 841.20 L 551.70 841.10 L 553.10 840.40 L 554.30 839.20 L 555.70 835.40 L 555.80 830.00 L 554.60 823.40 L 546.90 801.30 L 545.90 798.90 L 544.30 796.00 Z" fill="#333333" fill-rule="nonzero" group-id="5,18" id="路径备份-2" node-id="141" stroke="none" target-height="46" target-width="26.799988" target-x="529" target-y="795.2"></path></g><path d="M 420.90 681.90 L 420.10 673.50 L 420.10 669.60 L 420.50 665.20 L 421.40 660.80 L 422.80 656.40 L 424.10 653.60 L 425.80 651.00 L 427.90 648.60 L 430.30 646.50 L 433.20 644.70 L 436.70 643.20 L 440.90 642.10 L 448.00 641.30 L 450.90 641.60 L 454.90 642.40 L 458.30 643.80 L 461.40 645.70 L 466.70 650.60 L 472.00 658.00 L 474.70 662.60 L 496.50 793.30 L 493.00 796.10 L 489.40 798.30 L 485.50 800.00 L 481.30 801.10 L 476.70 801.70 L 471.80 801.70 L 466.30 801.10 L 463.00 791.20 L 449.80 756.10 L 420.90 681.90 Z" fill="url(#linearGradient5)" fill-rule="nonzero" group-id="5" id="路径-5" node-id="142" stroke="none" target-height="160.40002" target-width="76.399994" target-x="420.1" target-y="641.3"></path><g node-id="415"><path d="M 600.70 681.90 L 601.40 673.50 L 601.40 669.60 L 601.00 665.20 L 600.10 660.80 L 598.70 656.40 L 597.40 653.60 L 595.70 651.00 L 593.70 648.60 L 591.30 646.50 L 588.40 644.70 L 584.80 643.20 L 580.60 642.10 L 576.90 641.50 L 573.50 641.30 L 570.60 641.60 L 566.70 642.40 L 563.20 643.80 L 560.20 645.70 L 554.90 650.60 L 549.50 658.00 L 546.90 662.60 L 525.10 793.30 L 528.50 796.10 L 532.10 798.30 L 536.00 800.00 L 540.20 801.10 L 544.80 801.70 L 549.80 801.70 L 555.20 801.10 L 558.60 791.20 L 571.80 756.10 L 600.70 681.90 Z" fill="url(#linearGradient-21)" fill-rule="nonzero" group-id="5,19" id="路径-5备份" node-id="143" stroke="none" target-height="160.40002" target-width="76.30005" target-x="525.1" target-y="641.3"></path></g></g><g node-id="402"><path d="M 918.40 787.50 L 918.90 781.40 L 918.90 776.10 L 918.40 771.50 L 917.50 767.50 L 916.20 764.20 L 914.50 761.20 L 912.50 758.70 L 910.20 756.60 L 907.40 754.80 L 904.10 753.40 L 900.40 752.30 L 896.00 751.60 L 901.00 751.40 L 905.50 751.60 L 909.70 752.30 L 913.60 753.30 L 917.10 754.70 L 920.60 756.50 L 923.70 758.70 L 926.50 761.20 L 929.00 764.00 L 931.20 767.30 L 932.90 770.60 L 934.30 774.30 L 935.40 778.30 L 936.10 782.70 L 936.40 787.50 L 918.40 787.50 Z" fill="url(#linearGradient-22)" fill-rule="nonzero" group-id="6" id="路径-38" node-id="145" stroke="none" target-height="36.099976" target-width="40.400024" target-x="896" target-y="751.4"></path><path d="M 930.10 787.60 L 931.20 781.20 L 931.70 775.20 L 931.60 769.80 L 931.00 764.70 L 929.80 760.10 L 928.20 755.70 L 926.20 751.70 L 923.60 747.90 L 920.60 744.40 L 916.90 741.10 L 912.70 738.00 L 917.90 739.70 L 927.20 743.90 L 931.40 746.40 L 935.40 749.40 L 939.00 752.80 L 943.80 758.90 L 945.90 762.60 L 949.50 771.00 L 952.30 781.40 L 953.40 787.60 L 939.30 788.00 L 930.10 787.60 Z" fill="url(#linearGradient-23)" fill-rule="nonzero" group-id="6" id="路径-39" node-id="146" stroke="none" target-height="50" target-width="40.700012" target-x="912.7" target-y="738"></path><path d="M 957.10 788.00 L 956.70 781.70 L 957.00 776.30 L 957.80 771.60 L 959.00 767.50 L 960.60 763.90 L 962.70 760.80 L 965.10 758.20 L 968.00 755.90 L 971.40 754.00 L 975.40 752.50 L 980.00 751.40 L 970.20 751.40 L 966.90 751.70 L 960.20 753.10 L 957.00 754.40 L 953.80 756.20 L 950.50 758.50 L 947.50 761.30 L 944.50 764.90 L 941.30 769.50 L 938.60 774.40 L 935.90 780.50 L 933.10 788.00 L 948.30 787.70 L 957.10 788.00 Z" fill="url(#linearGradient-24)" fill-rule="nonzero" group-id="6" id="路径-40" node-id="147" stroke="none" target-height="36.599976" target-width="46.900024" target-x="933.1" target-y="751.4"></path><path d="M 907.40 802.00 L 922.70 801.50 L 928.50 800.20 L 931.00 799.10 L 933.10 797.60 L 934.70 795.70 L 935.70 794.10 L 936.80 789.60 L 937.00 786.60 L 936.70 782.70 L 935.90 779.00 L 934.60 775.50 L 932.80 772.20 L 930.70 769.10 L 928.10 766.40 L 925.10 764.00 L 921.90 761.90 L 918.40 760.20 L 914.60 759.00 L 910.70 758.30 L 906.50 758.00 L 902.30 758.30 L 898.40 759.00 L 894.60 760.20 L 891.10 761.90 L 887.90 764.00 L 884.90 766.40 L 882.30 769.10 L 880.20 772.20 L 878.40 775.50 L 877.10 779.00 L 876.30 782.70 L 876.00 786.60 L 876.20 789.60 L 876.70 792.00 L 877.50 794.00 L 878.50 795.70 L 880.40 797.60 L 882.60 799.10 L 885.40 800.20 L 891.60 801.50 L 907.40 802.00 Z" fill="url(#linearGradient-25)" fill-rule="nonzero" group-id="6" id="椭圆形" node-id="148" stroke="none" target-height="44" target-width="61" target-x="876" target-y="758"></path><path d="M 940.60 802.00 L 951.10 801.60 L 955.30 800.20 L 957.60 798.10 L 958.30 796.70 L 959.00 792.60 L 958.70 789.40 L 957.80 786.40 L 956.40 783.70 L 954.50 781.20 L 952.30 779.20 L 949.60 777.40 L 946.70 776.10 L 943.50 775.30 L 940.00 775.00 L 936.50 775.30 L 933.30 776.10 L 930.40 777.40 L 927.70 779.20 L 925.50 781.20 L 923.60 783.70 L 922.20 786.40 L 921.30 789.40 L 921.00 792.60 L 921.20 794.90 L 921.80 796.70 L 922.60 798.10 L 925.10 800.20 L 929.70 801.60 L 940.60 802.00 Z" fill="url(#linearGradient-26)" fill-rule="nonzero" group-id="6" id="椭圆形备份-6" node-id="149" stroke="none" target-height="27" target-width="38" target-x="921" target-y="775"></path></g><g node-id="403"><path d="M 247.00 791.30 L 245.90 787.70 L 244.20 784.50 L 242.10 781.70 L 239.50 779.30 L 236.20 777.10 L 224.60 772.20 L 221.70 770.00 L 221.30 769.10 L 221.30 768.20 L 222.00 767.30 L 223.70 766.20 L 229.30 765.70 L 231.70 766.00 L 234.10 766.80 L 236.80 768.30 L 238.40 769.60 L 242.00 774.10 L 245.20 780.30 L 247.00 784.80 L 247.30 787.00 L 247.00 791.30 Z" fill="url(#linearGradient-27)" fill-rule="nonzero" group-id="7" id="路径-43" node-id="151" stroke="none" target-height="25.599976" target-width="26" target-x="221.3" target-y="765.7"></path><path d="M 247.40 792.60 L 244.50 782.70 L 241.70 774.40 L 238.90 767.30 L 236.10 761.40 L 233.40 756.60 L 229.40 750.60 L 228.40 748.50 L 227.70 746.40 L 227.50 742.20 L 228.50 738.80 L 229.50 737.60 L 230.70 736.80 L 233.70 736.70 L 235.40 737.10 L 238.50 739.10 L 241.30 742.60 L 243.20 746.20 L 245.30 751.70 L 247.10 758.10 L 249.10 767.00 L 250.20 776.20 L 250.20 783.30 L 249.80 786.80 L 249.10 790.00 L 248.40 791.50 L 247.40 792.60 Z" fill="url(#linearGradient-28)" fill-rule="nonzero" group-id="7" id="路径-44" node-id="152" stroke="none" target-height="55.899963" target-width="22.699997" target-x="227.5" target-y="736.7"></path><path d="M 248.50 788.40 L 249.50 783.70 L 249.90 778.30 L 249.90 772.00 L 249.10 764.80 L 247.70 756.50 L 242.60 741.00 L 242.00 737.30 L 241.90 734.30 L 242.10 732.40 L 242.80 730.90 L 243.70 729.60 L 245.00 728.70 L 246.80 728.00 L 249.40 727.70 L 251.40 728.20 L 253.40 729.40 L 254.60 730.60 L 257.00 734.60 L 257.80 737.20 L 259.10 745.00 L 259.20 755.00 L 258.70 762.00 L 257.90 767.40 L 254.60 780.30 L 252.00 788.40 L 249.90 788.80 L 248.50 788.40 Z" fill="url(#linearGradient-29)" fill-rule="nonzero" group-id="7" id="路径-45" node-id="153" stroke="none" target-height="61.099976" target-width="17.300018" target-x="241.9" target-y="727.7"></path><path d="M 251.10 791.60 L 251.00 783.10 L 251.40 775.60 L 252.20 768.80 L 253.30 762.90 L 254.90 757.60 L 256.70 752.90 L 258.80 748.70 L 261.10 745.10 L 265.00 740.70 L 266.70 739.60 L 268.70 738.90 L 270.80 738.70 L 272.10 738.90 L 274.30 740.40 L 275.10 741.60 L 275.60 743.40 L 275.80 745.90 L 274.10 752.20 L 272.50 756.30 L 269.60 761.80 L 264.30 769.80 L 260.30 774.90 L 256.80 780.70 L 254.40 786.30 L 253.30 790.80 L 252.60 791.40 L 251.10 791.60 Z" fill="url(#linearGradient-30)" fill-rule="nonzero" group-id="7" id="路径-46" node-id="154" stroke="none" target-height="52.899963" target-width="24.799988" target-x="251" target-y="738.7"></path><path d="M 203.10 794.70 L 215.40 791.80 L 217.50 790.90 L 221.30 788.10 L 223.70 786.80 L 226.90 785.60 L 230.20 784.90 L 233.70 784.70 L 235.90 785.10 L 238.10 785.90 L 240.20 787.20 L 241.30 786.20 L 242.90 785.40 L 244.80 785.00 L 246.80 785.00 L 249.30 786.10 L 250.50 787.20 L 251.40 785.10 L 252.80 783.10 L 256.70 780.00 L 261.10 778.10 L 263.20 777.70 L 266.60 777.70 L 272.20 778.40 L 275.20 779.70 L 277.10 780.90 L 278.80 782.50 L 280.40 784.80 L 281.60 787.20 L 282.50 790.50 L 283.10 794.70 L 203.10 794.70 Z" fill="url(#linearGradient-31)" fill-rule="nonzero" group-id="7" id="路径-47" node-id="155" stroke="none" target-height="17" target-width="80" target-x="203.1" target-y="777.7"></path></g></svg>